<svg width="64" height="64" viewBox="0 0 64 64" fill="none" xmlns="http://www.w3.org/2000/svg">
<path d="M41.3966 55.749C41.2845 55.9849 41.1293 56.1882 40.9314 56.3589L39.5944 57.5015L39.4784 57.608L30.371 48.5065L30.4775 48.3904L31.6401 47.0639C31.6836 47.0142 31.7296 46.9667 31.7778 46.9216C31.8262 46.8765 31.8768 46.834 31.9293 46.7941C31.9821 46.7543 32.0367 46.717 32.0932 46.6827C32.1497 46.6485 32.2077 46.617 32.2673 46.5886C32.3271 46.5602 32.3879 46.5349 32.4503 46.5127C32.5126 46.4901 32.5756 46.4713 32.6398 46.4556C32.704 46.4398 32.7688 46.4272 32.8342 46.4179C32.9 46.409 32.9657 46.4031 33.0318 46.4006C33.0978 46.3981 33.1639 46.3988 33.2296 46.4031C33.2957 46.4074 33.3614 46.4148 33.4265 46.4259C33.4916 46.4367 33.5561 46.4509 33.62 46.4685C33.6836 46.4861 33.7463 46.5068 33.808 46.5306C33.8697 46.5543 33.9299 46.5815 33.9889 46.6114C34.0478 46.6414 34.1049 46.6744 34.1605 46.7102C34.216 46.746 34.2694 46.7846 34.3213 46.8259C34.3728 46.8673 34.4222 46.9111 34.4691 46.9574L41.0283 53.5222C41.1003 53.5929 41.1657 53.6688 41.2256 53.75C41.2851 53.8312 41.3382 53.9163 41.3845 54.0058C41.4308 54.0953 41.47 54.1879 41.5015 54.2833C41.5333 54.379 41.5574 54.4765 41.574 54.5759C41.5904 54.6753 41.599 54.7753 41.5996 54.8759C41.6003 54.9768 41.5932 55.0768 41.578 55.1765C41.5629 55.2759 41.5404 55.3737 41.5098 55.4697C41.4793 55.566 41.4416 55.6589 41.3966 55.749Z" fill="#38E8FF"/>
<path d="M7.79634 22.1701C7.88646 22.125 7.97967 22.0873 8.07566 22.0568C8.17165 22.0265 8.26949 22.0037 8.36918 21.9886C8.46887 21.9738 8.56918 21.9664 8.66979 21.9673C8.77072 21.9679 8.87072 21.9765 8.9701 21.9929C9.06948 22.0093 9.16702 22.0333 9.26269 22.0651C9.35837 22.0969 9.45097 22.1358 9.54047 22.1821C9.62998 22.2284 9.71547 22.2815 9.79664 22.3411C9.87782 22.4006 9.95374 22.4664 10.0247 22.538L16.5935 29.0929C16.6398 29.1401 16.6837 29.1895 16.725 29.2411C16.7664 29.2926 16.805 29.346 16.8411 29.4016C16.8769 29.4571 16.9096 29.5142 16.9398 29.5732C16.9698 29.6321 16.9966 29.6923 17.0207 29.7537C17.0445 29.8154 17.0652 29.8781 17.0827 29.9417C17.1003 30.0056 17.1145 30.0701 17.1253 30.1352C17.1364 30.2003 17.1439 30.2658 17.1482 30.3318C17.1525 30.3975 17.1534 30.4636 17.1506 30.5296C17.1482 30.5957 17.1423 30.6614 17.1334 30.7269C17.1241 30.7923 17.1114 30.8571 17.0957 30.9213C17.08 30.9855 17.0608 31.0485 17.0386 31.1108C17.0164 31.1729 16.9911 31.234 16.9627 31.2935C16.9343 31.3531 16.9028 31.4111 16.8682 31.4676C16.834 31.5241 16.7969 31.5787 16.7568 31.6312C16.717 31.684 16.6744 31.7343 16.6293 31.7827C16.5843 31.8309 16.5368 31.8769 16.4871 31.9204L15.1596 33.0821L15.0435 33.1889L5.93616 24.087L6.04264 23.971L7.18585 22.6349C7.35683 22.437 7.56023 22.2821 7.79634 22.1701Z" fill="#38E8FF"/>
<path d="M39.4784 57.608L38.8874 58.1117L35.2735 61.2392C35.1655 61.333 35.0544 61.4228 34.9395 61.5083C34.825 61.5938 34.7071 61.675 34.5865 61.7515C34.4658 61.8284 34.3423 61.9003 34.2161 61.9676C34.0899 62.0349 33.9612 62.0975 33.8303 62.1553C33.6994 62.2127 33.5664 62.2654 33.4315 62.313C33.2963 62.3605 33.1599 62.4031 33.022 62.4401C32.8837 62.4775 32.7445 62.5096 32.6037 62.5364C32.4633 62.5633 32.322 62.5846 32.1797 62.6006C32.0374 62.6167 31.8948 62.6275 31.7519 62.6327C31.609 62.6383 31.4661 62.638 31.3229 62.6327C31.18 62.6272 31.0374 62.6164 30.8954 62.6C30.7531 62.584 30.6118 62.5624 30.4713 62.5355C30.3306 62.5086 30.1914 62.4762 30.0531 62.4389C29.9152 62.4015 29.7787 62.359 29.6439 62.3111C29.509 62.2636 29.376 62.2108 29.2451 62.1531C29.1142 62.0954 28.9858 62.0327 28.8596 61.9651C27.4362 61.1732 26.042 60.3327 24.6769 59.4441C23.3121 58.5556 21.9794 57.6207 20.6794 56.6395C19.3791 55.6583 18.1145 54.6336 16.8855 53.5648C15.6565 52.496 14.4661 51.3861 13.3139 50.2349C12.1621 49.0836 11.0513 47.8938 9.98184 46.6657C8.91239 45.4373 7.88708 44.1738 6.90529 42.8744C5.9235 41.575 4.98801 40.2432 4.09881 38.879C3.20961 37.5148 2.36857 36.1216 1.57628 34.6991C1.50869 34.5731 1.44604 34.4448 1.38832 34.3139C1.33029 34.183 1.27752 34.0503 1.22999 33.9154C1.18215 33.7806 1.13955 33.6441 1.10221 33.5062C1.06455 33.3682 1.03245 33.229 1.0056 33.0886C0.978751 32.9481 0.957146 32.8068 0.940788 32.6648C0.924739 32.5228 0.913936 32.3802 0.908381 32.2373C0.902825 32.0944 0.902825 31.9515 0.908072 31.8086C0.913628 31.6657 0.924122 31.5231 0.940171 31.3812C0.956529 31.2392 0.977825 31.0978 1.00468 30.9574C1.03153 30.817 1.06363 30.6775 1.10066 30.5395C1.13801 30.4015 1.1806 30.2651 1.22813 30.1302C1.27597 29.9954 1.32844 29.8627 1.38616 29.7318C1.44387 29.6009 1.50622 29.4722 1.57381 29.3463C1.6411 29.2201 1.71332 29.0966 1.78986 28.9759C1.86671 28.8552 1.94789 28.7377 2.03338 28.6228C2.11887 28.5083 2.20869 28.3972 2.30282 28.2895L5.43215 24.6778L5.93616 24.087L15.0436 33.1889L13.4448 34.5636C14.4889 36.083 15.6004 37.5512 16.7794 38.9685C17.9587 40.3858 19.2 41.746 20.5044 43.0491C21.8084 44.3525 23.1695 45.5932 24.5877 46.7716C26.0056 47.95 27.475 49.0608 28.9951 50.104L30.371 48.5065L39.4784 57.608Z" fill="#006FDB"/>
<path d="M30.7973 60.0287C29.3738 59.2367 27.9797 58.3963 26.6149 57.5077C25.2497 56.6188 23.917 55.684 22.617 54.7031C21.3167 53.7219 20.0522 52.6969 18.8232 51.6284C17.5942 50.5596 16.4037 49.4497 15.2519 48.2985C14.0997 47.1472 12.9892 45.9574 11.9198 44.729C10.8504 43.5009 9.82474 42.237 8.84295 40.938C7.86147 39.6386 6.92597 38.3068 6.03647 36.9426C5.14727 35.5784 4.30653 34.1852 3.51394 32.7627C3.44634 32.6367 3.38369 32.508 3.32597 32.3775C3.26826 32.2466 3.21548 32.1136 3.16764 31.979C3.1198 31.8441 3.07721 31.7077 3.03986 31.5698C3.00252 31.4318 2.97042 31.2926 2.94326 31.1522C2.9164 31.0117 2.8948 30.8704 2.87875 30.7284C2.86239 30.5861 2.85159 30.4438 2.84603 30.3009C2.84048 30.158 2.84048 30.0151 2.84603 29.8722C2.85128 29.7293 2.86208 29.5867 2.87813 29.4448C2.89418 29.3025 2.91548 29.1614 2.94233 29.021C2.96918 28.8802 3.00128 28.741 3.03863 28.6031C3.07597 28.4651 3.11826 28.3287 3.1661 28.1938C3.21363 28.059 3.2661 27.9259 3.32381 27.7951C3.38153 27.6642 3.44418 27.5358 3.51147 27.4096C3.57875 27.2836 3.65097 27.1602 3.72752 27.0395C3.80437 26.9185 3.88554 26.8009 3.97103 26.6864C4.05684 26.5719 4.14665 26.4608 4.24048 26.3528L6.08153 24.2306L5.93616 24.087L5.43215 24.6778L2.30282 28.2895C2.20869 28.3972 2.11887 28.5083 2.03338 28.6228C1.94789 28.7377 1.86671 28.8552 1.78986 28.9759C1.71332 29.0966 1.6411 29.2201 1.57381 29.3463C1.50622 29.4722 1.44387 29.6009 1.38616 29.7318C1.32844 29.8627 1.27597 29.9954 1.22813 30.1302C1.1806 30.2651 1.13801 30.4015 1.10066 30.5395C1.06363 30.6775 1.03153 30.817 1.00468 30.9574C0.977825 31.0978 0.956529 31.2392 0.940171 31.3812C0.924122 31.5231 0.913628 31.6657 0.908072 31.8086C0.902825 31.9515 0.902825 32.0944 0.908381 32.2373C0.913936 32.3802 0.924739 32.5228 0.940788 32.6648C0.957146 32.8068 0.978751 32.9481 1.0056 33.0886C1.03245 33.229 1.06455 33.3682 1.10221 33.5062C1.13955 33.6441 1.18215 33.7806 1.22999 33.9154C1.27752 34.0503 1.33029 34.183 1.38832 34.3139C1.44604 34.4448 1.50869 34.5731 1.57628 34.6991C2.36857 36.1216 3.20961 37.5148 4.09881 38.879C4.98801 40.2432 5.9235 41.575 6.90529 42.8744C7.88708 44.1738 8.9127 45.4373 9.98184 46.6657C11.0513 47.8938 12.1621 49.0836 13.3139 50.2349C14.4661 51.3861 15.6565 52.496 16.8855 53.5648C18.1145 54.6336 19.3791 55.6583 20.6794 56.6395C21.9794 57.6207 23.3121 58.5556 24.6769 59.4441C26.042 60.3327 27.4362 61.1732 28.8596 61.9651C28.9858 62.0327 29.1142 62.0954 29.2451 62.1531C29.376 62.2108 29.509 62.2636 29.6439 62.3111C29.7787 62.359 29.9152 62.4015 30.0531 62.4389C30.1914 62.4762 30.3306 62.5086 30.4713 62.5355C30.6118 62.5624 30.7531 62.584 30.8954 62.6C31.0374 62.6164 31.18 62.6272 31.3229 62.6327C31.4661 62.638 31.609 62.6383 31.7519 62.6327C31.8948 62.6275 32.0374 62.6167 32.1797 62.6006C32.322 62.5846 32.4633 62.5633 32.6037 62.5364C32.7445 62.5096 32.8837 62.4775 33.022 62.4401C33.1599 62.4031 33.2963 62.3605 33.4315 62.313C33.5664 62.2654 33.6994 62.2127 33.8303 62.1553C33.9612 62.0975 34.0899 62.0349 34.2161 61.9676C34.3423 61.9003 34.4658 61.8284 34.5865 61.7515C34.7071 61.675 34.825 61.5938 34.9395 61.5083C35.0544 61.4228 35.1655 61.333 35.2735 61.2392L38.8874 58.1117L39.4784 57.608L39.3349 57.4648L37.2111 59.3046C37.1034 59.3985 36.992 59.4883 36.8772 59.5738C36.7627 59.6593 36.6448 59.7401 36.5241 59.817C36.4034 59.8935 36.2797 59.9654 36.1534 60.0327C36.0272 60.1 35.8988 60.1623 35.7676 60.2201C35.6368 60.2778 35.5037 60.3302 35.3689 60.3778C35.234 60.4253 35.0973 60.4676 34.9593 60.5049C34.821 60.5423 34.6818 60.5741 34.5411 60.6009C34.4007 60.6278 34.2593 60.6491 34.117 60.6651C33.975 60.6812 33.8324 60.6917 33.6892 60.6972C33.5463 60.7025 33.4034 60.7022 33.2605 60.6969C33.1173 60.6914 32.975 60.6803 32.8328 60.6642C32.6905 60.6478 32.5494 60.6262 32.4087 60.5994C32.2682 60.5725 32.1291 60.5401 31.9908 60.5028C31.8528 60.4654 31.7164 60.4228 31.5815 60.375C31.4466 60.3272 31.3136 60.2744 31.1828 60.2167C31.0519 60.159 30.9235 60.0963 30.7973 60.0287Z" fill="#005EBA"/>
<path d="M45.4756 24.8713V34.554H38.6935V41.3318H29.0049V34.554H22.2228V24.8713H29.0049V18.0935H38.6935V24.8713H45.4756Z" fill="#FF505B"/>
<path d="M60.9774 29.7127C60.9774 30.0765 60.9699 30.4404 60.9551 30.8043C60.9406 31.1679 60.9184 31.5312 60.8891 31.8938C60.8598 32.2568 60.823 32.6188 60.7792 32.9802C60.7351 33.3414 60.6841 33.7019 60.6255 34.0611C60.5672 34.4204 60.5014 34.7784 60.4286 35.1349C60.3554 35.4914 60.2755 35.8466 60.1882 36.2C60.1011 36.5534 60.0067 36.9049 59.9054 37.2543C59.8039 37.604 59.6956 37.9515 59.5801 38.2966C59.465 38.642 59.3425 38.9846 59.2135 39.325C59.0841 39.6654 58.9483 40.0028 58.8054 40.3377C58.6625 40.6725 58.5132 41.0043 58.357 41.3333C58.2008 41.662 58.0382 41.9877 57.8687 42.3099C57.6996 42.6321 57.5237 42.9509 57.3416 43.2661C57.1595 43.5815 56.9712 43.8929 56.7764 44.2003C56.5817 44.508 56.3808 44.8117 56.174 45.1111C55.9669 45.4108 55.7542 45.7059 55.5354 45.9969C55.3166 46.288 55.0919 46.5744 54.8616 46.8562C54.6311 47.1383 54.3953 47.4154 54.1536 47.6877C53.9122 47.9602 53.665 48.2278 53.4129 48.4901C53.1604 48.7528 52.903 49.0099 52.6403 49.262C52.3777 49.5142 52.1101 49.7611 51.8372 50.0025C51.5647 50.2438 51.2872 50.4793 51.0051 50.7096C50.723 50.9398 50.4363 51.1642 50.1453 51.383C49.8539 51.6015 49.5585 51.8142 49.2589 52.021C48.9592 52.2278 48.6552 52.4284 48.3474 52.6228C48.0394 52.8176 47.728 53.0056 47.4126 53.1877C47.0971 53.3698 46.778 53.5454 46.4555 53.7145C46.1329 53.8836 45.8073 54.046 45.4783 54.2022C45.1493 54.358 44.8172 54.5074 44.482 54.6503C44.1468 54.7929 43.8092 54.9287 43.4687 55.0577C43.128 55.1867 42.7851 55.309 42.4394 55.4244C42.0941 55.5395 41.7465 55.6478 41.3965 55.7491C41.4416 55.659 41.4792 55.5661 41.5098 55.4698C41.5403 55.3738 41.5629 55.2759 41.578 55.1765C41.5931 55.0769 41.6002 54.9769 41.5996 54.8759C41.599 54.7753 41.5903 54.6753 41.574 54.5759C41.5573 54.4765 41.5332 54.379 41.5015 54.2833C41.47 54.188 41.4308 54.0954 41.3845 54.0059C41.3382 53.9164 41.2851 53.8312 41.2255 53.75C41.1657 53.6688 41.1002 53.5929 41.0283 53.5222L34.4691 46.9574C34.4221 46.9111 34.3728 46.8673 34.3212 46.8259C34.2694 46.7846 34.216 46.746 34.1604 46.7102C34.1049 46.6744 34.0478 46.6414 33.9888 46.6114C33.9299 46.5815 33.8697 46.5543 33.808 46.5306C33.7462 46.5068 33.6836 46.4861 33.62 46.4685C33.5561 46.4509 33.4916 46.4367 33.4265 46.4259C33.3613 46.4148 33.2956 46.4074 33.2296 46.4031C33.1638 46.3988 33.0978 46.3982 33.0317 46.4006C32.9657 46.4031 32.8999 46.409 32.8342 46.4179C32.7688 46.4272 32.7039 46.4398 32.6397 46.4556C32.5755 46.4713 32.5126 46.4904 32.4502 46.5127C32.3879 46.5349 32.3271 46.5602 32.2672 46.5886C32.2076 46.617 32.1496 46.6485 32.0931 46.6827C32.0367 46.717 31.982 46.7543 31.9293 46.7941C31.8768 46.834 31.8262 46.8765 31.7777 46.9216C31.7296 46.9667 31.6836 47.0142 31.6401 47.0639L30.4774 48.3904L30.3709 48.5065L28.995 50.104C27.4749 49.0608 26.0055 47.95 24.5876 46.7716C23.1694 45.5932 21.8083 44.3525 20.5043 43.0491C19.2 41.746 17.9586 40.3858 16.7793 38.9685C15.6003 37.5512 14.4888 36.083 13.4447 34.5636L15.0435 33.1889L15.1595 33.0821L16.487 31.9204C16.5367 31.8769 16.5842 31.8309 16.6293 31.7827C16.6743 31.7343 16.7169 31.684 16.7567 31.6312C16.7969 31.5787 16.8339 31.5241 16.8682 31.4676C16.9027 31.4111 16.9342 31.3531 16.9626 31.2935C16.991 31.234 17.0163 31.1728 17.0385 31.1108C17.0608 31.0485 17.0799 30.9852 17.0956 30.9213C17.1114 30.8571 17.124 30.7923 17.1333 30.7269C17.1422 30.6614 17.1481 30.5957 17.1506 30.5296C17.1533 30.4636 17.1524 30.3975 17.1481 30.3318C17.1438 30.2657 17.1364 30.2003 17.1253 30.1352C17.1145 30.0701 17.1003 30.0056 17.0827 29.9417C17.0651 29.8781 17.0444 29.8154 17.0206 29.7537C16.9966 29.6923 16.9697 29.6321 16.9398 29.5732C16.9098 29.5142 16.8768 29.4571 16.841 29.4015C16.8049 29.346 16.7663 29.2926 16.725 29.2411C16.6836 29.1895 16.6398 29.1401 16.5935 29.0929L10.0247 22.538C9.95367 22.4664 9.87774 22.4006 9.79657 22.341C9.7154 22.2815 9.6299 22.2284 9.5404 22.1821C9.45089 22.1358 9.3583 22.0969 9.26262 22.0651C9.16694 22.0333 9.06941 22.0093 8.97003 21.9929C8.87065 21.9765 8.77065 21.9679 8.66972 21.9673C8.5691 21.9664 8.46879 21.9738 8.3691 21.9886C8.26941 22.0037 8.17157 22.0265 8.07559 22.0568C7.9796 22.0873 7.88639 22.125 7.79626 22.1701C7.90892 21.7824 8.02991 21.3972 8.15984 21.0151C8.28978 20.6327 8.42805 20.2534 8.57466 19.8775C8.72157 19.5012 8.87651 19.1287 9.04009 18.7596C9.20336 18.3904 9.37497 18.025 9.5549 17.6633C9.73453 17.3019 9.92219 16.9444 10.1182 16.5914C10.3139 16.2383 10.5172 15.8898 10.7287 15.5457C10.9401 15.2015 11.1589 14.8623 11.3855 14.5281C11.6117 14.1938 11.8456 13.8648 12.0867 13.5407C12.328 13.217 12.5762 12.8988 12.8318 12.5861C13.087 12.2731 13.3493 11.9664 13.6185 11.6651C13.8876 11.3642 14.1635 11.0694 14.4456 10.7806C14.728 10.4917 15.0166 10.2096 15.3117 9.93364C15.6064 9.65772 15.9074 9.38858 16.2145 9.12623C16.5216 8.86389 16.8342 8.60833 17.1524 8.35988C17.4709 8.11142 17.7947 7.87006 18.1237 7.63611C18.453 7.40216 18.7873 7.17562 19.1265 6.95648C19.4657 6.73735 19.8098 6.52593 20.1586 6.32222C20.5074 6.11852 20.8604 5.92284 21.2178 5.73488C21.5756 5.54691 21.937 5.36698 22.3024 5.19506C22.6682 5.02315 23.0373 4.85957 23.4101 4.70432C23.783 4.54907 24.1589 4.40185 24.5385 4.26358C24.9178 4.125 25.3002 3.99475 25.6854 3.87346C26.0706 3.75185 26.4586 3.6392 26.8487 3.53488C27.2391 3.43086 27.6314 3.33518 28.0259 3.24877C28.4206 3.16204 28.8169 3.08426 29.2148 3.01512C29.6129 2.9463 30.0123 2.88611 30.4129 2.83518C30.8135 2.78395 31.2154 2.74167 31.6178 2.70864C32.0203 2.67531 32.4234 2.65123 32.8271 2.63611C33.2308 2.62068 33.6348 2.61451 34.0385 2.61728C34.4425 2.62006 34.8462 2.6321 35.2496 2.65278C35.653 2.67377 36.0558 2.70339 36.4579 2.74228C36.8601 2.78117 37.261 2.82901 37.661 2.8858C38.061 2.94228 38.4595 3.00802 38.8564 3.08241C39.2533 3.1571 39.6487 3.24043 40.0419 3.33241C40.4351 3.42469 40.8262 3.52562 41.215 3.63518C41.6036 3.74475 41.99 3.86296 42.3734 3.98981C42.757 4.11667 43.1373 4.25216 43.5147 4.39599C43.8922 4.53981 44.2663 4.69198 44.6369 4.85247C45.0076 5.01296 45.3746 5.18179 45.7376 5.35864C46.1005 5.53549 46.4598 5.72037 46.8144 5.91358C47.1693 6.10648 47.5197 6.3071 47.8656 6.51574C48.2113 6.72438 48.5524 6.94043 48.8885 7.1642C49.2249 7.38796 49.5558 7.61944 49.8817 7.85802C50.2076 8.0966 50.528 8.34228 50.8428 8.59506C51.1576 8.84784 51.4669 9.10772 51.77 9.37438C52.0734 9.64105 52.3706 9.91451 52.6616 10.1944C52.9527 10.4744 53.2372 10.7608 53.5153 11.0534C53.7937 11.346 54.0653 11.6448 54.3301 11.9494C54.595 12.2543 54.853 12.5648 55.1042 12.8812C55.3551 13.1975 55.599 13.5191 55.8357 13.8463C56.0721 14.1735 56.3014 14.5059 56.523 14.8432C56.745 15.1806 56.9592 15.5228 57.1656 15.8698C57.3721 16.2167 57.5706 16.5682 57.7616 16.9241C57.9524 17.2799 58.1351 17.6398 58.3098 18.0037C58.4845 18.3679 58.6508 18.7355 58.8091 19.1071C58.9675 19.4784 59.1172 19.8531 59.2588 20.2312C59.4002 20.6093 59.5332 20.9904 59.6576 21.3747C59.782 21.7586 59.898 22.1454 60.0051 22.5346C60.1122 22.9238 60.2107 23.3151 60.3005 23.7086C60.39 24.1025 60.4709 24.4978 60.5431 24.8951C60.615 25.2923 60.678 25.6911 60.7323 26.0911C60.7863 26.4911 60.8317 26.892 60.8678 27.2941C60.9042 27.6963 60.9314 28.0991 60.9496 28.5022C60.9681 28.9056 60.9774 29.309 60.9774 29.7127ZM45.4755 34.554V24.8713H38.6934V18.0935H29.0049V24.8713H22.2228V34.554H29.0049V41.3318H38.6934V34.554H45.4755Z" fill="#FBFBFB"/>
<path d="M15.0435 33.1889L13.4447 34.5636C14.4888 36.083 15.6003 37.5512 16.7793 38.9685C17.9586 40.3858 19.1999 41.746 20.5043 43.0491C21.8083 44.3525 23.1694 45.5932 24.5876 46.7716C26.0055 47.95 27.4749 49.0608 28.995 50.104L30.3709 48.5065L30.4774 48.3905L30.7681 48.0534C29.2789 47.0235 27.8391 45.9284 26.4487 44.7688C25.0583 43.6093 23.7231 42.3892 22.4425 41.1093C21.1623 39.8293 19.9419 38.4945 18.782 37.1046C17.6222 35.7145 16.5268 34.2753 15.4969 32.787L15.1595 33.0775L15.0435 33.1889Z" fill="#EDF4FA"/>
<path d="M10.0247 22.538L16.5935 29.0929C16.662 29.1623 16.725 29.2364 16.7824 29.3151C16.8398 29.3938 16.891 29.4765 16.9361 29.5629C16.9808 29.6494 17.0191 29.7389 17.0506 29.8312C17.0818 29.9234 17.1062 30.0176 17.1234 30.1133C17.1407 30.2092 17.1506 30.3059 17.1531 30.4034C17.1558 30.5009 17.1509 30.5978 17.1389 30.6944C17.1268 30.7913 17.1077 30.8864 17.0812 30.9802C17.0546 31.0741 17.0213 31.1654 16.9812 31.2543L17.0975 31.1475L18.4247 29.9858C18.4744 29.9423 18.5219 29.8963 18.567 29.8481C18.612 29.7997 18.6546 29.7494 18.6947 29.6966C18.7346 29.6441 18.7716 29.5895 18.8062 29.533C18.8404 29.4765 18.8719 29.4185 18.9003 29.3589C18.9287 29.2994 18.954 29.2383 18.9765 29.1762C18.9988 29.1139 19.0176 29.0506 19.0333 28.9867C19.0494 28.9225 19.0617 28.8577 19.071 28.7923C19.0802 28.7268 19.0861 28.6611 19.0886 28.595C19.091 28.529 19.0901 28.463 19.0858 28.3972C19.0815 28.3312 19.0741 28.2657 19.063 28.2006C19.0521 28.1355 19.038 28.071 19.0204 28.0071C19.0031 27.9435 18.9824 27.8809 18.9583 27.8191C18.9346 27.7577 18.9074 27.6975 18.8775 27.6386C18.8475 27.5796 18.8145 27.5225 18.7787 27.467C18.7429 27.4114 18.7043 27.358 18.663 27.3065C18.6216 27.2549 18.5778 27.2055 18.5312 27.1583L11.9623 20.6034C11.8916 20.5318 11.8154 20.466 11.7342 20.4065C11.6531 20.3469 11.5679 20.2938 11.4784 20.2475C11.3886 20.2012 11.2963 20.1623 11.2006 20.1306C11.1049 20.0988 11.0074 20.0747 10.908 20.0583C10.8083 20.042 10.7083 20.0333 10.6074 20.0327C10.5068 20.0318 10.4065 20.0392 10.3068 20.054C10.2074 20.0691 10.1092 20.092 10.0132 20.1222C9.91726 20.1528 9.82405 20.1904 9.73392 20.2355C9.49781 20.3475 9.29441 20.5025 9.12343 20.7003L7.98021 22.0346L7.8833 22.1438C7.97157 22.104 8.06231 22.0713 8.15521 22.0454C8.24842 22.0194 8.34318 22.0006 8.43917 21.9889C8.53515 21.9775 8.63145 21.9731 8.72806 21.9759C8.82466 21.979 8.92065 21.9892 9.01571 22.0068C9.11077 22.0241 9.20398 22.0488 9.29534 22.0806C9.3867 22.112 9.47497 22.1503 9.56077 22.1954C9.64627 22.2404 9.72775 22.2917 9.80553 22.3491C9.8833 22.4065 9.95645 22.4694 10.0247 22.538Z" fill="#EDF4FA"/>
<path d="M42.8694 54.4225C43.0672 54.2518 43.2221 54.0484 43.3345 53.8126C43.3792 53.7225 43.4172 53.6293 43.4475 53.5333C43.478 53.4373 43.5008 53.3395 43.5157 53.2401C43.5308 53.1404 43.5379 53.0401 43.5373 52.9395C43.5366 52.8389 43.528 52.7389 43.5116 52.6395C43.4953 52.5401 43.4712 52.4426 43.4394 52.3469C43.4076 52.2512 43.3684 52.1589 43.3221 52.0694C43.2758 51.9799 43.2231 51.8947 43.1632 51.8136C43.1036 51.7324 43.0379 51.6565 42.9663 51.5855L36.407 45.0207C36.3598 44.9744 36.3104 44.9306 36.2589 44.8895C36.2073 44.8481 36.1536 44.8096 36.0981 44.7738C36.0425 44.7377 35.9854 44.7049 35.9265 44.675C35.8675 44.6448 35.8073 44.6179 35.7456 44.5941C35.6842 44.5701 35.6212 44.5494 35.5577 44.5321C35.4938 44.5145 35.4293 44.5003 35.3641 44.4895C35.299 44.4784 35.2333 44.471 35.1675 44.4667C35.1015 44.4623 35.0354 44.4614 34.9694 44.4639C34.9033 44.4664 34.8376 44.4722 34.7722 44.4815C34.7067 44.4907 34.6419 44.5031 34.5777 44.5188C34.5135 44.5349 34.4503 44.5537 34.3879 44.5759C34.3256 44.5981 34.2648 44.6235 34.2052 44.6522C34.1453 44.6806 34.0873 44.7117 34.0308 44.7463C33.9743 44.7806 33.9197 44.8176 33.8672 44.8577C33.8145 44.8975 33.7638 44.9401 33.7157 44.9852C33.6672 45.0302 33.6212 45.0775 33.5777 45.1275L32.4151 46.4537L32.3086 46.5701C32.3975 46.5299 32.4888 46.4966 32.5827 46.4701C32.6765 46.4435 32.7719 46.4244 32.8685 46.4123C32.9654 46.4003 33.0623 46.3954 33.1598 46.3981C33.2574 46.4006 33.354 46.4105 33.4499 46.4278C33.5459 46.4451 33.6404 46.4691 33.7327 46.5006C33.8249 46.5321 33.9141 46.5701 34.0009 46.6151C34.0873 46.6599 34.17 46.7111 34.249 46.7685C34.3277 46.8259 34.4018 46.8889 34.4712 46.9574L41.0305 53.5222C41.099 53.5904 41.1623 53.6632 41.2197 53.741C41.2774 53.8188 41.3286 53.9006 41.3737 53.9864C41.4191 54.0719 41.4573 54.1605 41.4891 54.2518C41.5209 54.3432 41.5453 54.4367 41.5629 54.5318C41.5805 54.6268 41.5907 54.7228 41.5938 54.8197C41.5965 54.9163 41.5922 55.0126 41.5805 55.1089C41.5688 55.2049 41.5499 55.2997 41.5237 55.3929C41.4975 55.4858 41.4644 55.5765 41.4246 55.6648L41.5342 55.5679L42.8694 54.4225Z" fill="#EDF4FA"/>
<path d="M8.8938 20.0302C8.76201 20.0302 8.63547 20.004 8.51417 19.9519C8.45553 19.9269 8.39997 19.8963 8.3475 19.8605C8.29503 19.8247 8.24658 19.784 8.20182 19.7386C8.15738 19.6932 8.11787 19.6438 8.083 19.5907C8.04812 19.5377 8.0188 19.4815 7.99503 19.4225C7.97127 19.3636 7.95368 19.3028 7.94164 19.2401C7.92991 19.1778 7.92436 19.1148 7.92497 19.0512C7.92559 18.9877 7.93269 18.9247 7.94565 18.8623C7.95861 18.8003 7.97775 18.7398 8.00244 18.6815C8.29318 18.0037 8.61479 17.3259 8.95892 16.6753C8.98701 16.6164 9.02065 16.5611 9.05985 16.5093C9.09935 16.4571 9.14349 16.4096 9.19226 16.3667C9.24102 16.3235 9.2938 16.2858 9.35028 16.2534C9.40676 16.221 9.46602 16.1944 9.52775 16.1741C9.58979 16.1534 9.65306 16.1392 9.71756 16.1315C9.78238 16.1238 9.84719 16.1225 9.91201 16.1278C9.97713 16.1333 10.0407 16.1451 10.1034 16.1633C10.166 16.1815 10.2262 16.2056 10.2836 16.2358C10.3413 16.2664 10.3953 16.3019 10.446 16.3432C10.4963 16.3843 10.5423 16.4302 10.5833 16.4806C10.6247 16.5312 10.6605 16.5852 10.6907 16.6429C10.721 16.7003 10.7453 16.7605 10.7632 16.8231C10.7815 16.8855 10.7932 16.9494 10.7984 17.0142C10.804 17.079 10.8027 17.1438 10.7947 17.2086C10.787 17.2731 10.7728 17.3364 10.7524 17.3981C10.7318 17.4602 10.7052 17.5191 10.6728 17.5756C10.354 18.1827 10.0546 18.8111 9.78516 19.4423C9.74812 19.5296 9.69904 19.6096 9.63793 19.6824C9.57713 19.7552 9.50707 19.8179 9.42806 19.8701C9.34874 19.9222 9.26355 19.962 9.17281 19.9892C9.08176 20.0167 8.98886 20.0302 8.8938 20.0302Z" fill="#C1CFE8"/>
<path d="M33.8491 1.63333C33.2849 1.63364 32.721 1.65092 32.158 1.68518C31.5948 1.71944 31.033 1.77037 30.4728 1.83827C29.9127 1.90648 29.3549 1.99105 28.8 2.09259C28.2448 2.19413 27.6932 2.31234 27.1454 2.44691C26.5975 2.58179 26.054 2.73271 25.5151 2.9C24.9762 3.06759 24.4429 3.25092 23.9151 3.45031C23.3874 3.64969 22.8661 3.86481 22.3512 4.09568C21.8364 4.32654 21.3287 4.57253 20.8287 4.83364C20.3287 5.09506 19.8371 5.37129 19.3537 5.66203C18.8701 5.95308 18.396 6.25802 17.9309 6.57747C17.4658 6.89691 17.0108 7.22993 16.5658 7.57685C16.1207 7.92345 15.6867 8.28333 15.2633 8.65617C14.8401 9.02901 14.4284 9.41419 14.0281 9.81203C13.6281 10.2096 13.2401 10.6188 12.8648 11.0398C12.4892 11.4608 12.1269 11.8926 11.7772 12.3355C11.4278 12.7781 11.092 13.2309 10.7698 13.6938C10.7334 13.746 10.7025 13.8012 10.6769 13.8596C10.6516 13.9179 10.6318 13.9781 10.6182 14.0401C10.6047 14.1025 10.5972 14.1651 10.596 14.2287C10.5948 14.2923 10.5997 14.3555 10.6111 14.4182C10.6222 14.4809 10.6395 14.5417 10.6627 14.6009C10.6858 14.6602 10.7145 14.7164 10.7491 14.7701C10.7834 14.8235 10.8226 14.8731 10.8667 14.9191C10.9108 14.9648 10.959 15.0062 11.0111 15.0423C11.0633 15.0787 11.1185 15.1096 11.1769 15.1352C11.2352 15.1608 11.2954 15.1802 11.3577 15.1938C11.4198 15.2074 11.4827 15.2148 11.5463 15.216C11.6099 15.2173 11.6732 15.2123 11.7358 15.2012C11.7985 15.1901 11.8593 15.1728 11.9185 15.1497C11.9778 15.1265 12.0343 15.0978 12.088 15.0636C12.1417 15.0293 12.1914 14.9901 12.2371 14.946C12.283 14.9018 12.3241 14.8537 12.3605 14.8015C12.6562 14.3753 12.9642 13.9583 13.2846 13.5506C13.605 13.1429 13.9371 12.7447 14.2812 12.3568C14.6253 11.9688 14.9806 11.591 15.3472 11.2244C15.7139 10.8574 16.0908 10.5015 16.4787 10.1571C16.8664 9.81265 17.2639 9.47993 17.6716 9.15895C18.079 8.83796 18.496 8.52963 18.9216 8.23364C19.3475 7.93734 19.7821 7.65432 20.2247 7.38395C20.6676 7.11358 21.1179 6.85679 21.5759 6.61327C22.0343 6.36975 22.4991 6.14012 22.9707 5.92438C23.4426 5.70864 23.9204 5.50679 24.404 5.31944C24.8877 5.1321 25.3766 4.95895 25.8707 4.80061C26.3648 4.64228 26.863 4.49876 27.3658 4.37006C27.8682 4.24136 28.3741 4.12777 28.8837 4.02901C29.3929 3.93024 29.9046 3.84691 30.4191 3.7787C30.9333 3.71049 31.4494 3.65771 31.9667 3.62006C32.4843 3.58271 33.0025 3.56049 33.521 3.5537C34.0398 3.54691 34.5583 3.55555 35.0769 3.57994C35.5951 3.60401 36.112 3.64352 36.6281 3.69815C37.1438 3.75308 37.6577 3.82315 38.1695 3.90864C38.6812 3.99413 39.1901 4.09444 39.6957 4.21018C40.2015 4.32592 40.7034 4.45648 41.2012 4.60216C41.6994 4.74753 42.1926 4.90771 42.6812 5.0824C43.1694 5.2574 43.6522 5.4466 44.1293 5.65C44.6068 5.8537 45.0775 6.07129 45.5417 6.30277C46.0059 6.53426 46.4627 6.77932 46.9123 7.03796C47.362 7.2966 47.8037 7.56851 48.237 7.85339C48.6704 8.13858 49.0951 8.43611 49.5108 8.74629C49.9265 9.05648 50.3327 9.3787 50.7293 9.71296C51.1259 10.0475 51.512 10.3932 51.888 10.7506C52.2639 11.108 52.629 11.4762 52.983 11.8552C53.337 12.2343 53.6796 12.6235 54.0105 13.0228C54.3414 13.4222 54.6599 13.8309 54.9664 14.2494C55.2728 14.6676 55.5667 15.0947 55.8478 15.5305C56.129 15.9664 56.3969 16.4102 56.6515 16.8617C56.9062 17.3136 57.1472 17.7725 57.3747 18.2386C57.6018 18.7046 57.8151 19.1772 58.0145 19.6559C58.2136 20.1346 58.3984 20.6188 58.5688 21.1086C58.7392 21.5984 58.8951 22.0926 59.0358 22.5917C59.1768 23.0907 59.3028 23.5935 59.4139 24.1C59.525 24.6065 59.6207 25.1157 59.7015 25.6281C59.7821 26.1401 59.8475 26.6543 59.8978 27.1704C59.9478 27.6864 59.9824 28.2034 60.0018 28.7216C60.021 29.2398 60.025 29.758 60.0136 30.2765C60.0018 30.7947 59.975 31.3123 59.9324 31.829C59.8901 32.346 59.8324 32.8611 59.7596 33.3744C59.6864 33.8876 59.5981 34.3984 59.4947 34.9065C59.3913 35.4145 59.2728 35.9191 59.1395 36.42C59.0059 36.9213 58.8577 37.4179 58.6944 37.9102C58.5315 38.4025 58.354 38.8892 58.162 39.371C57.9697 39.8528 57.7636 40.3281 57.5432 40.7975C57.3228 41.267 57.0889 41.7296 56.841 42.1849C56.5932 42.6404 56.3318 43.0883 56.0574 43.5281C55.7827 43.9682 55.4954 44.3994 55.1951 44.8225C54.8951 45.2454 54.5824 45.6589 54.2574 46.0633C53.9327 46.4673 53.596 46.8617 53.2478 47.246C52.8994 47.6302 52.5401 48.0037 52.1694 48.3666C51.7988 48.7296 51.4179 49.0812 51.0262 49.4213C50.6349 49.7617 50.2336 50.0901 49.8225 50.4065C49.4114 50.7228 48.9914 51.0265 48.562 51.3179C48.133 51.6096 47.6957 51.8879 47.25 52.1531C46.804 52.4185 46.3509 52.6707 45.8901 52.9089C45.4296 53.1475 44.962 53.3719 44.488 53.5827C44.0139 53.7932 43.534 53.9895 43.0482 54.1716C42.5623 54.354 42.0716 54.5213 41.5759 54.6744C41.5978 54.8583 41.5938 55.0416 41.5633 55.2244C41.5327 55.4074 41.4772 55.5821 41.3966 55.7491C41.2846 55.9849 41.1293 56.1883 40.9315 56.3589L40.5614 56.6747C40.7127 56.771 40.8781 56.8207 41.0577 56.8237C41.1454 56.8234 41.2315 56.812 41.3164 56.7889C41.7219 56.6775 42.125 56.5571 42.5253 56.4278C42.9253 56.2981 43.3225 56.1599 43.7167 56.0126C44.1108 55.8654 44.5012 55.7092 44.8883 55.5444C45.2753 55.3796 45.6583 55.2062 46.0377 55.0241C46.417 54.8423 46.7917 54.6515 47.1623 54.4528C47.533 54.254 47.8991 54.0469 48.2605 53.8318C48.6219 53.6163 48.9781 53.3932 49.3296 53.1617C49.6809 52.9305 50.0269 52.6913 50.3673 52.4447C50.708 52.1978 51.0429 51.9435 51.3719 51.6818C51.7012 51.4197 52.0244 51.1506 52.3414 50.8744C52.6583 50.5981 52.9691 50.3148 53.2735 50.0244C53.5778 49.7342 53.8753 49.437 54.1664 49.1336C54.4574 48.8299 54.7414 48.5197 55.0185 48.2034C55.2954 47.887 55.5651 47.5645 55.8278 47.2361C56.0904 46.9074 56.3454 46.5731 56.5929 46.2333C56.8404 45.8932 57.0802 45.5478 57.312 45.1972C57.5441 44.8466 57.7682 44.4907 57.9842 44.1299C58.2003 43.7691 58.408 43.4037 58.6074 43.0336C58.8071 42.6636 58.9984 42.2892 59.1812 41.9105C59.3639 41.5318 59.538 41.1491 59.7034 40.7626C59.8691 40.3762 60.0259 39.9861 60.1738 39.5926C60.3219 39.1991 60.4611 38.8021 60.5913 38.4025C60.7213 38.0028 60.8426 37.6003 60.9546 37.195C61.0667 36.7898 61.1697 36.3821 61.2636 35.9722C61.3574 35.5623 61.442 35.1506 61.517 34.737C61.5923 34.3234 61.6583 33.9083 61.7148 33.4917C61.7716 33.075 61.8188 32.6574 61.8568 32.2386C61.8944 31.82 61.9228 31.4006 61.942 30.9805C61.9608 30.5605 61.9704 30.1404 61.9707 29.7197C61.9707 29.2994 61.9614 28.8793 61.9426 28.4592C61.9238 28.0392 61.8957 27.6197 61.858 27.2009C61.8204 26.7824 61.7731 26.3645 61.717 25.9478C61.6605 25.5315 61.5947 25.116 61.5197 24.7025C61.4447 24.2889 61.3602 23.8768 61.2667 23.467C61.1731 23.0571 61.0704 22.6497 60.9586 22.2444C60.8466 21.8389 60.7256 21.4364 60.5957 21.0367C60.4657 20.6367 60.3268 20.2398 60.179 19.8463C60.0312 19.4528 59.8747 19.0626 59.7093 18.6759C59.5438 18.2895 59.3697 17.9068 59.1873 17.5278C59.0046 17.1491 58.8139 16.7747 58.6145 16.4043C58.4151 16.0343 58.2074 15.6685 57.9917 15.3077C57.7756 14.9469 57.5518 14.591 57.3201 14.2401C57.0883 13.8892 56.8488 13.5438 56.6012 13.2037C56.354 12.8636 56.0991 12.5293 55.8367 12.2006C55.5744 11.8719 55.3046 11.5494 55.0278 11.2327C54.7509 10.9164 54.4673 10.6062 54.1762 10.3022C53.8855 9.99845 53.588 9.70123 53.2839 9.4108C52.9796 9.12037 52.6691 8.83703 52.3522 8.56049C52.0352 8.28395 51.7123 8.01481 51.3833 7.75277C51.0543 7.49074 50.7194 7.23611 50.379 6.98919C50.0386 6.74228 49.6929 6.50308 49.3417 6.2716C48.9904 6.04012 48.6343 5.81666 48.2728 5.60123C47.9117 5.3858 47.5457 5.17839 47.175 4.97932C46.8046 4.78024 46.4296 4.58981 46.0506 4.4074C45.6713 4.22531 45.2883 4.05154 44.9015 3.88673C44.5145 3.7216 44.1241 3.56543 43.7299 3.4179C43.3361 3.27037 42.9389 3.13179 42.5389 3.00216C42.1386 2.87253 41.7358 2.75185 41.3303 2.64012C40.9244 2.5287 40.5167 2.42623 40.1065 2.33302C39.6963 2.23981 39.284 2.15555 38.8701 2.08086C38.4562 2.00617 38.0404 1.94074 37.6238 1.88457C37.2068 1.82839 36.7886 1.78179 36.3698 1.74444C35.9506 1.7071 35.5309 1.67901 35.1108 1.66049C34.6904 1.64197 34.2698 1.63302 33.8491 1.63333Z" fill="#C1CFE8"/>
</svg>
