<svg width="64" height="64" viewBox="0 0 64 64" fill="none" xmlns="http://www.w3.org/2000/svg">
<rect x="1.45459" y="27.6364" width="8" height="29.8182" rx="1" fill="#57DDF3"/>
<rect x="11.6365" y="18.1818" width="8" height="38.5455" rx="1" fill="#57DDF3"/>
<rect x="21.8181" y="26.1818" width="8" height="31.2727" rx="1" fill="#57DDF3"/>
<rect x="32.7273" y="37.0909" width="7.27273" height="20.3636" rx="1" fill="#57DDF3"/>
<rect x="42.9091" y="32.7273" width="7.27273" height="24" rx="1" fill="#57DDF3"/>
<g clip-path="url(#clip0_105_360)">
<path d="M51.2875 31.2727L52.9138 32.1447L52.6266 34.1453L50.1818 33.5527L51.2875 31.2727Z" fill="#ABE2FF"/>
<path d="M53.3732 32.6726L55.0454 33.0755L55.0686 35.0287L54.5116 36.1771L50.8608 36.3903L50.0128 34.4852L53.3732 32.6726Z" fill="#ABE2FF"/>
<path d="M55.069 35.7327L56.1478 37.0293L56.6846 38.0353L62.0356 50.2409L59.0272 52.219L52.0001 37.0909L52.3637 36.3636L55.069 35.7327Z" fill="#ABE2FF"/>
<path d="M12.4951 18.4645C12.4701 18.4645 12.4472 18.4873 12.4472 18.5114V56.3753C12.4472 56.4003 12.4701 56.4231 12.4951 56.4231H18.6778C18.7028 56.4231 18.7256 56.4003 18.7256 56.3753V18.5114C18.7256 18.4873 18.7028 18.4645 18.6778 18.4645H12.4951ZM18.6778 57.5997H12.4951C11.8207 57.5997 11.271 57.05 11.271 56.3753V18.5114C11.271 17.8367 11.8207 17.288 12.4951 17.288H18.6778C19.3525 17.288 19.9019 17.8367 19.9019 18.5114V56.3753C19.9019 57.05 19.3525 57.5997 18.6778 57.5997Z" fill="#1C3D86"/>
<ellipse cx="46.9091" cy="23.2727" rx="9.09091" ry="9.45454" fill="#ABE3FF"/>
<ellipse cx="46.9091" cy="22.9091" rx="6.90909" ry="6.90909" fill="#E4E4E4"/>
<path d="M22.8512 56.4232H29.1278V27.0738H22.8512V56.4232ZM29.2068 57.5997H22.7722C22.1676 57.5997 21.6753 57.1071 21.6753 56.5022V26.9947C21.6753 26.3901 22.1676 25.8975 22.7722 25.8975H29.2068C29.8114 25.8975 30.304 26.3901 30.304 26.9947V56.5022C30.304 57.1071 29.8114 57.5997 29.2068 57.5997Z" fill="#1C3D86"/>
<path d="M2.04318 56.4232H8.32065V28.188H2.04318V56.4232ZM8.39966 57.5997H1.96417C1.35861 57.5997 0.866943 57.1071 0.866943 56.5022V28.1089C0.866943 27.504 1.35861 27.0114 1.96417 27.0114H8.39966C9.00429 27.0114 9.49688 27.504 9.49688 28.1089V56.5022C9.49688 57.1071 9.00429 57.5997 8.39966 57.5997Z" fill="#1C3D86"/>
<path d="M33.2501 56.4232H39.5285V37.8046H33.2501V56.4232ZM39.6643 57.5997H33.114C32.5396 57.5997 32.0739 57.1327 32.0739 56.5602V37.6685C32.0739 37.0951 32.5396 36.6281 33.114 36.6281H39.6643C40.2386 36.6281 40.7044 37.0951 40.7044 37.6685V56.5602C40.7044 57.1327 40.2386 57.5997 39.6643 57.5997Z" fill="#1C3D86"/>
<path d="M50.0151 57.5997H43.5815C42.9759 57.5997 42.4843 57.1071 42.4843 56.5022V31.9645C42.4843 31.6401 42.7469 31.3762 43.0722 31.3762C43.3966 31.3762 43.6605 31.6401 43.6605 31.9645V56.4232H49.9361V36.7071C49.9361 36.3827 50.1997 36.1188 50.5241 36.1188C50.8494 36.1188 51.112 36.3827 51.112 36.7071V56.5022C51.112 57.1071 50.6207 57.5997 50.0151 57.5997Z" fill="#1C3D86"/>
<path d="M46.7432 29.2972C44.3889 29.2972 42.2719 27.9911 41.2182 25.8901C39.6901 22.8441 40.9232 19.1225 43.9673 17.5951C44.8364 17.1583 45.7673 16.937 46.733 16.937C49.0871 16.937 51.205 18.2429 52.259 20.3451C53.7871 23.3901 52.5528 27.1099 49.5096 28.6392C48.6395 29.0756 47.7087 29.2972 46.7432 29.2972ZM53.3111 19.8176C52.054 17.3148 49.5337 15.7605 46.733 15.7605C45.5827 15.7605 44.4744 16.0235 43.4398 16.5426C39.8161 18.3623 38.3475 22.7917 40.167 26.4167C41.4219 28.9194 43.9423 30.4738 46.7432 30.4738C47.8935 30.4738 49.0016 30.2099 50.0371 29.6907C53.6602 27.8707 55.1284 23.4426 53.3111 19.8176Z" fill="#22A1E2"/>
<path d="M61.2441 50.6917L60.0947 51.2688C59.991 51.321 59.8799 51.3469 59.7639 51.3469C59.4818 51.3469 59.2191 51.1871 59.0941 50.9371L52.4639 37.7256C52.2799 37.3571 52.429 36.9083 52.7953 36.7247L53.946 36.1466C54.0497 36.0951 54.1608 36.0685 54.2765 36.0685C54.5586 36.0685 54.8225 36.2293 54.9475 36.4784L61.5768 49.6908C61.7617 50.0583 61.6126 50.5077 61.2441 50.6917ZM50.5901 35.5914L50.5426 35.4966C50.3577 35.129 50.5077 34.6796 50.874 34.4957L53.3092 33.2735C53.412 33.221 53.5231 33.1954 53.6389 33.1954C53.9219 33.1954 54.1848 33.3562 54.3098 33.6053L54.3574 33.6997C54.4456 33.8762 54.4605 34.0784 54.3978 34.2688C54.3345 34.459 54.2021 34.6117 54.0259 34.7006L51.591 35.9232C51.4879 35.9747 51.3759 36.0012 51.2602 36.0012C50.979 36.0012 50.7151 35.8404 50.5901 35.5914ZM51.2592 32.1281C51.2765 32.1188 51.2941 32.109 51.3108 32.1006L51.7157 31.8966L52.0228 32.5096L51.0305 33.0077L50.7234 32.3957L51.2151 32.1485C51.2299 32.1411 51.2453 32.1355 51.2592 32.1281ZM38.7821 27.1117C36.5805 22.7228 38.3577 17.3599 42.7441 15.1574C43.9975 14.529 45.3382 14.2089 46.7293 14.2089C50.1216 14.2089 53.174 16.0914 54.6947 19.1225C55.7614 21.2475 55.937 23.662 55.1882 25.9204C54.4475 28.1556 52.8873 29.971 50.795 31.0426L50.6774 31.1016C49.4407 31.7127 48.1185 32.0244 46.7466 32.0244C43.3543 32.0244 40.3018 30.142 38.7821 27.1117ZM62.6271 49.163L55.9984 35.9506C55.8277 35.6108 55.5657 35.3395 55.2515 35.1556C55.3626 35.0003 55.4518 34.8256 55.5135 34.6383C55.6759 34.1503 55.6373 33.629 55.4086 33.1732L55.3608 33.0775C55.033 32.4241 54.3731 32.0188 53.6389 32.0188C53.4673 32.0188 53.2953 32.0454 53.129 32.0914L52.7037 31.2429C54.3815 30.0151 55.6364 28.3046 56.3046 26.2907C57.1518 23.7349 56.9534 21.0012 55.745 18.5951C54.024 15.1639 50.57 13.0324 46.7293 13.0324C45.1534 13.0324 43.6345 13.3938 42.2169 14.1062C37.2506 16.5988 35.2382 22.6704 37.7311 27.6392C37.8558 27.8892 37.9929 28.1299 38.1361 28.3651L36.1148 31.9534L32.0352 21.992C31.945 21.7716 31.7299 21.6272 31.491 21.6272H26.5892L16.083 6.65123C15.9811 6.50493 15.8185 6.41296 15.6401 6.40215C15.4611 6.39012 15.2901 6.45987 15.1688 6.59043L4.35399 18.3441C4.13362 18.583 4.14905 18.9552 4.38794 19.175C4.62775 19.3948 4.99905 19.3799 5.21942 19.1401L15.5401 7.92407L25.8024 22.5528C25.9129 22.7099 26.0919 22.8037 26.2839 22.8037H31.096L35.4864 33.5235C35.5725 33.733 35.7694 33.8735 35.9944 33.8874C36.0065 33.8892 36.0182 33.8892 36.0311 33.8892C36.2416 33.8892 36.4382 33.7753 36.5429 33.5895L38.8824 29.438C40.7706 31.7982 43.6318 33.2006 46.7466 33.2006C47.7244 33.2006 48.6799 33.0611 49.6024 32.7852L50.0324 33.6438C49.3213 34.1945 49.0731 35.1908 49.4913 36.0244L49.5392 36.1188C49.8608 36.7614 50.504 37.1611 51.2234 37.1759C51.1821 37.5333 51.2398 37.9065 51.4126 38.2531L58.0429 51.4645C58.371 52.1179 59.0299 52.5235 59.7639 52.5235C60.0608 52.5235 60.3577 52.4534 60.6222 52.321L61.7725 51.7429C62.7191 51.267 63.1031 50.1099 62.6271 49.163Z" fill="#22A1E2"/>
</g>
<defs>
<clipPath id="clip0_105_360">
<rect width="64" height="64" fill="white"/>
</clipPath>
</defs>
</svg>
