<svg width="74" height="74" viewBox="0 0 74 74" fill="none" xmlns="http://www.w3.org/2000/svg">
<rect x="8.37744" y="18.1509" width="36.3019" height="46.0755" fill="white"/>
<path d="M13.9622 9.77358L44.6791 9.07547L50.9622 15.3585L51.6603 55.8491H13.9622V9.77358Z" fill="white"/>
<path d="M46.4427 14.6755C45.9845 14.6755 45.6116 14.3022 45.6116 13.8429V10.5304L49.5664 14.6755H46.4427ZM15.5905 56.9853H44.834V63.6555C44.834 64.1137 44.4611 64.4866 44.0032 64.4866H9.60904C9.15011 64.4866 8.77719 64.1137 8.77719 63.6555V19.1955C8.77719 18.7362 9.15011 18.363 9.60904 18.363H13.4482V54.8405C13.4482 56.0228 14.4093 56.9853 15.5905 56.9853ZM51.471 43.9293C51.8339 43.9293 52.1269 43.6352 52.1269 43.2734V16.9708C52.1269 15.9877 51.5888 14.664 50.9025 13.9599L46.5562 9.50017C45.8657 8.79178 44.5503 8.23721 43.5618 8.23721H15.5905C14.4093 8.23721 13.4482 9.19861 13.4482 10.3809V17.0508H9.60904C8.42781 17.0508 7.4657 18.0136 7.4657 19.1955V63.6555C7.4657 64.8374 8.42781 65.7992 9.60904 65.7992H44.0032C45.1844 65.7992 46.1455 64.8374 46.1455 63.6555V56.9853H49.9843C51.1659 56.9853 52.1269 56.0228 52.1269 54.8405V49.5517C52.1269 49.1899 51.8339 48.8955 51.471 48.8955C51.1095 48.8955 50.8154 49.1899 50.8154 49.5517V54.8405C50.8154 55.2998 50.4425 55.6731 49.9843 55.6731H15.5905C15.1326 55.6731 14.7597 55.2998 14.7597 54.8405V10.3809C14.7597 9.9227 15.1326 9.54941 15.5905 9.54941H43.5618C43.8105 9.54941 44.1067 9.6108 44.4029 9.71143C44.3383 9.89486 44.3001 10.1165 44.3001 10.3809V13.8429C44.3001 15.0248 45.2612 15.9877 46.4427 15.9877H49.6124C50.0253 15.9877 50.3133 15.8934 50.5214 15.7682C50.6987 16.1772 50.8154 16.6211 50.8154 16.9708V43.2734C50.8154 43.6352 51.1095 43.9293 51.471 43.9293Z" fill="#1B4189"/>
<ellipse cx="38.3963" cy="36.3019" rx="10.4717" ry="9.77358" fill="#ABE3FF"/>
<ellipse cx="38.3963" cy="36.3019" rx="7.67924" ry="6.98113" fill="#E4E4E4"/>
<path d="M43.6199 40.4805C42.3751 42.0932 40.492 43.0189 38.4532 43.0189C37.0014 43.0189 35.6254 42.5486 34.4727 41.6585C31.6277 39.4585 31.0999 35.3527 33.2986 32.5045C34.5426 30.8919 36.4255 29.9672 38.4653 29.9672C39.9174 29.9672 41.2931 30.4379 42.4458 31.3276C45.2911 33.5266 45.8175 37.6327 43.6199 40.4805ZM43.247 30.2891C41.863 29.2199 40.2093 28.655 38.4653 28.655C36.0168 28.655 33.7547 29.7663 32.2608 31.703C29.6207 35.1229 30.2538 40.0551 33.6715 42.697C35.0558 43.7666 36.7084 44.3315 38.4532 44.3315C40.902 44.3315 43.1631 43.2202 44.6577 41.2835C47.2981 37.8622 46.665 32.931 43.247 30.2891Z" fill="#22A1E2"/>
<path d="M46.0754 41.8868H48.1698L48.8679 43.9811L46.0754 44.6792V41.8868Z" fill="#ABE2FF"/>
<path d="M48.1698 42.5849L50.6132 41.8868L50.9622 43.9811V45.3774L47.4717 47.4717V45.3774L48.1698 42.5849Z" fill="#ABE2FF"/>
<path d="M51.3115 44.6792L53.0567 45.3774L54.1039 46.0755L65.6228 55.1509L63.5284 58.6415L50.9624 49.566L50.2643 46.7736L51.3115 44.6792Z" fill="#ABE2FF"/>
<path d="M64.9296 56.2341L64.1837 57.2015C64.0249 57.4057 63.784 57.5238 63.5228 57.5238C63.3372 57.5238 63.1624 57.4642 63.0168 57.3514L50.7223 47.8509C50.3594 47.5711 50.293 47.0472 50.5724 46.6843L51.3183 45.7176C51.4764 45.5134 51.7169 45.3957 51.9792 45.3957C52.1648 45.3957 52.3389 45.4549 52.4845 45.5677L64.7801 55.0682C64.9542 55.2027 65.0659 55.3983 65.0945 55.6199C65.1234 55.8412 65.0638 56.0596 64.9296 56.2341ZM48.3381 46.76C48.1579 46.76 47.9887 46.7025 47.8485 46.594C47.6782 46.4627 47.5698 46.27 47.543 46.0516C47.5162 45.831 47.5758 45.613 47.7111 45.4374L49.3891 43.263C49.549 43.056 49.7909 42.9372 50.0532 42.9372C50.2324 42.9372 50.4026 42.9947 50.5428 43.1032C50.8983 43.3779 50.96 43.8968 50.6791 44.2598L49.0008 46.4342C48.842 46.6411 48.6004 46.76 48.3381 46.76ZM32.7066 43.9479C28.598 40.7728 27.8368 34.8463 31.009 30.7363C32.8051 28.4091 35.5219 27.0741 38.4654 27.0741C40.5616 27.0741 42.5483 27.7529 44.2124 29.0383C46.2019 30.5764 47.4745 32.7968 47.7949 35.292C48.1126 37.7691 47.4549 40.2214 45.9428 42.2042L45.8793 42.287C44.0832 44.5906 41.3792 45.9113 38.4522 45.9113C36.3559 45.9113 34.3692 45.2326 32.7066 43.9479ZM47.2582 42.646L47.7828 43.0518L47.1016 43.9357L46.577 43.5296L46.9128 43.0928C46.9242 43.0785 46.9363 43.0664 46.9467 43.0518C46.9599 43.0353 46.9713 43.0182 46.9834 43.0018L47.2582 42.646ZM66.3945 55.4529C66.3221 54.8837 66.033 54.3784 65.5812 54.0286L53.2868 44.5292C52.9517 44.2698 52.5563 44.1274 52.138 44.0967C52.2611 43.3472 51.9824 42.5568 51.344 42.0636C50.9721 41.7767 50.5253 41.6247 50.0532 41.6247C49.5511 41.6247 49.079 41.7949 48.6996 42.1025L47.9363 41.513C48.9712 39.5673 49.3819 37.3558 49.0954 35.125C48.7303 32.2822 47.2807 29.752 45.0135 27.9998C43.1189 26.5359 40.8539 25.7619 38.4654 25.7619C35.1133 25.7619 32.0171 27.2822 29.9708 29.9333C26.3565 34.6165 27.224 41.3695 31.9054 44.9863C33.7997 46.4506 36.064 47.2235 38.4522 47.2235C41.1529 47.2235 43.6878 46.235 45.6405 44.4646L46.4171 45.0656C46.2561 45.421 46.1926 45.815 46.2419 46.2115C46.3114 46.7807 46.5973 47.2849 47.047 47.6325C47.4192 47.9194 47.8656 48.0722 48.3381 48.0722C48.6432 48.0722 48.9366 48.0058 49.2049 47.8877C49.3359 48.2724 49.5768 48.6239 49.9208 48.8894L62.2156 58.3899C62.5925 58.6811 63.0443 58.836 63.5228 58.836C64.1941 58.836 64.8129 58.5323 65.2215 58.0034L65.9674 57.0367C66.3167 56.5845 66.4684 56.0217 66.3945 55.4529Z" fill="#22A1E2"/>
<path d="M42.822 19.9757H19.4878C19.1263 19.9757 18.8323 19.6823 18.8323 19.3194C18.8323 18.9575 19.1263 18.6635 19.4878 18.6635H42.822C43.1845 18.6635 43.4775 18.9575 43.4775 19.3194C43.4775 19.6823 43.1845 19.9757 42.822 19.9757Z" fill="#1B4189"/>
<path d="M42.822 24.8958H19.4878C19.1263 24.8958 18.8323 24.6024 18.8323 24.2395C18.8323 23.8776 19.1263 23.5832 19.4878 23.5832H42.822C43.1845 23.5832 43.4775 23.8776 43.4775 24.2395C43.4775 24.6024 43.1845 24.8958 42.822 24.8958Z" fill="#1B4189"/>
<path d="M42.822 49.4964H19.4878C19.1263 49.4964 18.8323 49.202 18.8323 48.8402C18.8323 48.4772 19.1263 48.1842 19.4878 48.1842H42.822C43.1845 48.1842 43.4775 48.4772 43.4775 48.8402C43.4775 49.202 43.1845 49.4964 42.822 49.4964Z" fill="#1B4189"/>
<path d="M27.2897 29.8155H19.4878C19.1263 29.8155 18.8323 29.5222 18.8323 29.1593C18.8323 28.7974 19.1263 28.5033 19.4878 28.5033H27.2897C27.6515 28.5033 27.9456 28.7974 27.9456 29.1593C27.9456 29.5222 27.6515 29.8155 27.2897 29.8155Z" fill="#1B4189"/>
<path d="M27.2897 44.5763H19.4878C19.1263 44.5763 18.8323 44.2823 18.8323 43.9204C18.8323 43.5574 19.1263 43.2641 19.4878 43.2641H27.2897C27.6515 43.2641 27.9456 43.5574 27.9456 43.9204C27.9456 44.2823 27.6515 44.5763 27.2897 44.5763Z" fill="#1B4189"/>
<path d="M26.1156 34.7364H19.4878C19.1263 34.7364 18.8323 34.4423 18.8323 34.0805C18.8323 33.7175 19.1263 33.4242 19.4878 33.4242H26.1156C26.4782 33.4242 26.7715 33.7175 26.7715 34.0805C26.7715 34.4423 26.4782 34.7364 26.1156 34.7364Z" fill="#1B4189"/>
<path d="M26.1156 39.6554H19.4878C19.1263 39.6554 18.8323 39.3621 18.8323 38.9992C18.8323 38.6373 19.1263 38.3432 19.4878 38.3432H26.1156C26.4782 38.3432 26.7715 38.6373 26.7715 38.9992C26.7715 39.3621 26.4782 39.6554 26.1156 39.6554Z" fill="#1B4189"/>
</svg>
