<svg width="64" height="64" viewBox="0 0 64 64" fill="none" xmlns="http://www.w3.org/2000/svg">
<g clip-path="url(#clip0_243_2)">
<path fill-rule="evenodd" clip-rule="evenodd" d="M33.8942 53.0068C33.2861 53.0367 32.6735 53.0525 32.0559 53.0525C31.9364 53.0525 31.8173 53.0518 31.6988 53.0506C31.3911 53.0475 31.1389 53.2947 31.1358 53.6025C31.1327 53.9096 31.3803 54.1617 31.688 54.1648C31.8105 54.1657 31.933 54.1664 32.0559 54.1664C32.692 54.1664 33.3235 54.1506 33.9494 54.1194C34.2565 54.1043 34.4935 53.8426 34.4781 53.5352C34.463 53.2284 34.2013 52.9914 33.8942 53.0068ZM29.5047 52.9642C29.3769 52.9552 29.2494 52.946 29.1222 52.9358C28.8158 52.9111 28.5469 53.1401 28.5222 53.4466C28.4976 53.7531 28.7266 54.0216 29.0334 54.0463C29.1645 54.0568 29.296 54.0667 29.4275 54.0756C29.7343 54.0972 30.0009 53.8651 30.0219 53.5586C30.0432 53.2518 29.8114 52.9855 29.5047 52.9642ZM59.2753 31.0488C59.2972 31.2528 59.3151 31.4574 59.3287 31.6633C59.3494 31.9701 59.6151 32.2025 59.9222 32.1818C60.2293 32.1614 60.4617 31.8954 60.4411 31.5889C60.4263 31.3682 60.4071 31.1485 60.3837 30.9293C60.3506 30.6238 60.0756 30.4022 59.7698 30.4349C59.4639 30.4679 59.2423 30.7429 59.2753 31.0488ZM4.89201 30.5938C4.99046 29.8809 5.1383 29.179 5.33306 28.4901C5.4167 28.1941 5.24417 27.8861 4.94818 27.8025C4.65219 27.7191 4.34417 27.8914 4.26053 28.1873C4.05188 28.9256 3.89324 29.6778 3.7883 30.4417C3.74602 30.7466 3.95929 31.0278 4.26392 31.0698C4.56886 31.1117 4.85003 30.8988 4.89201 30.5938ZM58.2324 26.8861C58.4994 27.5543 58.7222 28.2373 58.8966 28.933C58.9719 29.2312 59.2747 29.4123 59.5732 29.3377C59.8716 29.2623 60.0528 28.9599 59.9778 28.6614C59.7908 27.9176 59.5531 27.187 59.2673 26.4725C59.1531 26.187 58.8284 26.0478 58.5429 26.162C58.2574 26.2762 58.1179 26.6006 58.2324 26.8861ZM48.2846 16.3281C48.93 16.6849 49.5534 17.062 50.1534 17.459C50.4099 17.6284 50.7562 17.5577 50.9256 17.3015C51.0954 17.0451 51.025 16.6994 50.7685 16.5293C50.1442 16.117 49.4954 15.7241 48.8238 15.3531C48.555 15.2043 48.2158 15.3022 48.0667 15.571C47.9179 15.8401 48.0155 16.1793 48.2846 16.3281ZM14.2753 17.2522C14.8812 16.8639 15.5099 16.4951 16.1599 16.1469C16.4309 16.0019 16.5331 15.6639 16.3877 15.3926C16.2426 15.1219 15.9044 15.0198 15.6334 15.1648C14.9574 15.5269 14.3037 15.9105 13.6738 16.3145C13.4148 16.4806 13.3392 16.8253 13.5056 17.084C13.6713 17.3429 14.0164 17.4182 14.2753 17.2522ZM44.3114 14.5012C45.0022 14.7608 45.6763 15.042 46.3321 15.3429C46.6117 15.4713 46.9429 15.3485 47.0713 15.0691C47.1997 14.7898 47.0769 14.4586 46.7972 14.3302C46.1179 14.0185 45.4195 13.7275 44.7037 13.4583C44.4158 13.35 44.0942 13.4957 43.9858 13.7836C43.8778 14.0713 44.0235 14.3929 44.3114 14.5012ZM18.1253 15.1867C18.7849 14.8938 19.4627 14.621 20.1565 14.3698C20.4457 14.2648 20.5954 13.9451 20.4905 13.6559C20.3855 13.367 20.0658 13.2176 19.7766 13.3219C19.0581 13.5824 18.3562 13.8651 17.6726 14.1685C17.3914 14.2935 17.2648 14.6228 17.3895 14.9037C17.5145 15.1846 17.8442 15.3114 18.1253 15.1867Z" fill="#B4E4FA"/>
<path fill-rule="evenodd" clip-rule="evenodd" d="M53.171 40.1957C53.1737 40.0512 53.1651 39.9093 53.1469 39.7707C52.9975 38.6364 52.1645 37.7006 51.1997 37.3012C50.4623 36.9963 49.658 37.0022 49.0046 37.4046C46.1747 39.1472 46.1815 39.2046 40.9327 41.2599C33.004 44.3645 33.9518 53.0062 35.3123 57.9685C35.3827 58.225 35.6247 58.396 35.8904 58.3769C35.9441 58.3728 35.9987 58.371 36.0537 58.371H49.854C49.9136 58.371 49.9719 58.3735 50.0299 58.3778C50.3129 58.3997 50.5669 58.2065 50.6207 57.9281C51.0713 55.5994 52.3512 52.4753 55.7524 50.0299C58.2244 48.2528 59.8669 47.2077 61.0506 45.5963C62.2429 43.9728 62.9842 41.7741 63.5852 37.6559C63.775 36.3562 63.9852 34.4086 63.6105 32.9892C63.3105 31.8531 62.6565 31.0324 61.4916 30.8787C60.6277 30.7645 60.0311 30.8873 59.5787 31.1599C59.1234 31.4336 58.8003 31.8713 58.5253 32.4639C57.8805 33.8546 57.4737 36.2497 54.8342 38.9031C54.8311 38.9059 53.9929 39.5574 53.171 40.1957Z" fill="#FACCD2"/>
<path fill-rule="evenodd" clip-rule="evenodd" d="M53.171 40.1957C53.1737 40.0512 53.1651 39.9093 53.1469 39.7707C52.9975 38.6364 52.1645 37.7006 51.1997 37.3012C50.4623 36.9963 49.658 37.0022 49.0046 37.4046C46.1747 39.1472 46.1815 39.2046 40.9327 41.2599C33.004 44.3645 33.9518 53.0062 35.3123 57.9685C35.3827 58.225 35.6247 58.396 35.8904 58.3769C35.9441 58.3728 35.9987 58.371 36.0537 58.371H49.854C49.9136 58.371 49.9719 58.3735 50.0299 58.3778C50.3129 58.3997 50.5669 58.2065 50.6207 57.9281C51.0713 55.5994 52.3512 52.4753 55.7524 50.0299C58.2244 48.2528 59.8669 47.2077 61.0506 45.5963C62.2429 43.9728 62.9842 41.7741 63.5852 37.6559C63.775 36.3562 63.9852 34.4086 63.6105 32.9892C63.3105 31.8531 62.6565 31.0324 61.4916 30.8787C60.6277 30.7645 60.0311 30.8873 59.5787 31.1599C59.1234 31.4336 58.8003 31.8713 58.5253 32.4639C57.8805 33.8546 57.4737 36.2497 54.8342 38.9031C54.8311 38.9059 53.9929 39.5574 53.171 40.1957Z" fill="#FACCD2"/>
<path fill-rule="evenodd" clip-rule="evenodd" d="M10.9407 40.1957C10.9379 40.0512 10.9466 39.9093 10.9648 39.7707C11.1142 38.6364 11.9472 37.7006 12.912 37.3012C13.6493 36.9963 14.4537 37.0022 15.1071 37.4046C17.937 39.1472 17.9302 39.2046 23.179 41.2599C31.1077 44.3645 30.1598 53.0062 28.7993 57.9685C28.7287 58.225 28.487 58.396 28.2213 58.3769C28.1676 58.3728 28.1129 58.371 28.058 58.371H14.2577C14.1981 58.371 14.1398 58.3735 14.0818 58.3778C13.7987 58.3997 13.5447 58.2065 13.491 57.9281C13.0404 55.5994 11.7605 52.4753 8.35923 50.0299C5.88731 48.2528 4.24472 47.2077 3.06108 45.5963C1.86879 43.9728 1.12713 41.7741 0.52651 37.6559C0.336386 36.3562 0.12651 34.4086 0.501201 32.9892C0.801201 31.8531 1.45521 31.0324 2.62003 30.8787C3.48392 30.7645 4.08021 30.8873 4.53268 31.1599C4.98824 31.4336 5.31139 31.8713 5.58639 32.4639C6.23114 33.8546 6.63793 36.2497 9.27743 38.9031C9.28052 38.9059 10.1188 39.5574 10.9407 40.1957Z" fill="#FACCD2"/>
<path fill-rule="evenodd" clip-rule="evenodd" d="M29.1213 28.8444C28.8228 28.8444 28.5775 29.0796 28.5645 29.3778C28.5623 29.4281 28.5614 29.4784 28.5614 29.529C28.5614 31.4651 30.1339 33.0373 32.071 33.0373C34.008 33.0373 35.5805 31.4651 35.5805 29.529C35.5805 29.4784 35.5796 29.4281 35.5771 29.3778C35.5645 29.0796 35.3191 28.8444 35.0204 28.8444H29.1213Z" fill="#2A353B"/>
<path fill-rule="evenodd" clip-rule="evenodd" d="M13.9099 23.8787C14.1865 23.4 14.3417 22.7182 14.3698 21.9173C14.4084 20.8281 14.2217 19.5028 13.8772 18.2188C13.5334 16.9352 13.0321 15.6938 12.4541 14.7701C12.0288 14.0904 11.5534 13.5778 11.0744 13.3012C10.5957 13.0247 9.91332 12.8694 9.1124 12.8414C8.02289 12.8031 6.69665 12.9895 5.4124 13.3336C4.12814 13.6778 2.88647 14.1787 1.96209 14.7565C1.28246 15.1815 0.769494 15.6568 0.492642 16.1355C0.216099 16.6142 0.0611607 17.296 0.0330743 18.0969C-0.00550598 19.1861 0.181222 20.5114 0.525358 21.7954C0.869494 23.079 1.37073 24.3204 1.94882 25.2441C2.37382 25.9238 2.84912 26.4364 3.32844 26.713C3.80715 26.9895 4.48925 27.1448 5.29048 27.1728C6.37999 27.2111 7.70591 27.0247 8.99017 26.6806C10.2747 26.3364 11.5164 25.8355 12.4405 25.2577C13.1204 24.8327 13.6334 24.3574 13.9099 23.8787Z" fill="#468FCC"/>
<path fill-rule="evenodd" clip-rule="evenodd" d="M58.3108 13.4154L53.7411 14.6395C53.0179 14.833 52.4528 15.3978 52.2593 16.121C51.9374 17.3213 51.3565 19.4889 51.0346 20.6889C50.8408 21.4117 51.0476 22.1833 51.5772 22.7127C52.4562 23.591 54.0436 25.1778 54.9226 26.0562C55.4519 26.5858 56.2235 26.7926 56.947 26.5985C58.1476 26.2772 60.3158 25.6963 61.5164 25.3747C62.2399 25.1812 62.8047 24.6164 62.9988 23.8932C63.3201 22.6929 63.9013 20.5253 64.2232 19.3253C64.417 18.6025 64.2099 17.8309 63.6806 17.3015C62.8019 16.4231 61.2142 14.8364 60.3355 13.9577C59.8059 13.4284 59.0343 13.2216 58.3108 13.4154Z" fill="#3FB655"/>
<path fill-rule="evenodd" clip-rule="evenodd" d="M25.142 24.6216V26.1293C25.142 28.2441 26.8571 28.8444 28.9728 28.8444C30.8676 28.8444 33.2441 28.8444 35.1386 28.8444C37.2546 28.8444 38.9697 28.2441 38.9697 26.1293C38.9697 25.6364 38.9694 25.133 38.9988 24.6556C38.9997 24.6444 39 24.633 39 24.6216C39 23.2556 39.5435 21.9457 40.5105 20.9806C42.7093 18.8043 44.0731 15.7836 44.0731 12.4469C44.0731 5.81728 38.6886 0.434566 32.0559 0.434566C25.4231 0.434566 20.0386 5.81728 20.0386 12.4469C20.0386 15.7836 21.4022 18.8043 23.6231 20.9617C24.5951 21.9321 25.1417 23.2488 25.142 24.6216Z" fill="#F2D85C"/>
<path fill-rule="evenodd" clip-rule="evenodd" d="M39.0361 24.0145H25.1058C25.1299 24.2148 25.1419 24.4173 25.1419 24.6216V26.1293C25.1419 28.2441 26.8571 29.9586 28.9728 29.9586C30.8676 29.9586 33.2441 29.9586 35.1385 29.9586C37.2546 29.9586 38.9697 28.2441 38.9697 26.1293C38.9697 25.6364 38.9694 25.133 38.9987 24.6556C38.9997 24.6444 39 24.633 39 24.6216C39 24.4173 39.012 24.2148 39.0361 24.0145Z" fill="#37474F"/>
<path fill-rule="evenodd" clip-rule="evenodd" d="M36.0537 63.9417H49.854C51.6997 63.9417 53.1978 62.4438 53.1978 60.5991C53.1978 58.7543 51.6997 57.2568 49.854 57.2568H36.0537C34.208 57.2568 32.7098 58.7543 32.7098 60.5991C32.7098 62.4438 34.208 63.9417 36.0537 63.9417Z" fill="#263238"/>
<path fill-rule="evenodd" clip-rule="evenodd" d="M28.058 63.9417C29.9034 63.9417 31.4015 62.4438 31.4015 60.5991C31.4015 58.7543 29.9034 57.2568 28.058 57.2568H14.2574C12.412 57.2568 10.9136 58.7543 10.9136 60.5991C10.9136 62.4438 12.412 63.9417 14.2574 63.9417H28.058Z" fill="#263238"/>
<path fill-rule="evenodd" clip-rule="evenodd" d="M47.9275 43.6167C47.9275 43.6167 46.1815 44.1472 44.9697 45.1988C44.4065 45.6877 43.9046 46.2932 43.6265 47.0432C43.5596 47.2009 43.6333 47.3833 43.791 47.45C43.9488 47.517 44.1312 47.4435 44.1978 47.2855C44.5691 46.5136 45.2259 45.9673 45.8932 45.5716C47.0238 44.9012 48.204 44.6954 48.204 44.6954C48.2222 44.6914 48.2593 44.6806 48.2599 44.6803C50.5599 43.9053 52.2361 42.4349 53.171 40.1957C53.1738 40.0512 53.1651 39.9093 53.1469 39.7707C53.1157 39.5339 53.0549 39.3062 52.9694 39.0901C52.8954 38.9031 52.1284 40.404 52.1284 40.404C51.3204 42.3392 49.9126 42.9398 47.9275 43.6167Z" fill="#F29AA6"/>
<path fill-rule="evenodd" clip-rule="evenodd" d="M16.1842 43.6167C16.1842 43.6167 17.9302 44.1472 19.1419 45.1988C19.7052 45.6877 20.2067 46.2932 20.4851 47.0432C20.5521 47.2009 20.4784 47.3833 20.3206 47.45C20.1629 47.517 19.9805 47.4435 19.9138 47.2855C19.5425 46.5136 18.8858 45.9673 18.2185 45.5716C17.0879 44.9012 15.9077 44.6954 15.9077 44.6954C15.8895 44.6914 15.8524 44.6806 15.8518 44.6803C13.5518 43.9053 11.8756 42.4349 10.9407 40.1957C10.9379 40.0512 10.9466 39.9093 10.9648 39.7707C10.9959 39.5339 11.0567 39.3062 11.1422 39.0901C11.2163 38.9031 11.9833 40.404 11.9833 40.404C12.7913 42.3392 14.199 42.9398 16.1842 43.6167Z" fill="#F29AA6"/>
</g>
<defs>
<clipPath id="clip0_243_2">
<rect width="64" height="64" fill="white"/>
</clipPath>
</defs>
</svg>
