<svg width="64" height="64" viewBox="0 0 64 64" fill="none" xmlns="http://www.w3.org/2000/svg">
<g clip-path="url(#clip0_105_387)">
<path d="M21.3528 34.183V26.7287C21.3528 22.0241 17.538 18.2096 12.833 18.2096C8.1278 18.2096 4.31299 22.0241 4.31299 26.7287V62.9352H22.734V34.183H21.3528Z" fill="#FCD56B"/>
<path d="M51.1731 18.2096C46.4679 18.2096 42.6531 22.0241 42.6531 26.7287V34.183H41.6753V62.9352H59.6929V26.7287C59.6929 22.0241 55.8781 18.2096 51.1731 18.2096Z" fill="#438347"/>
<path d="M40.5228 34.183V26.7287C40.5228 22.0241 36.708 18.2096 32.0031 18.2096C27.2978 18.2096 23.483 22.0241 23.483 26.7287V34.183H21.3528V62.9352H42.6531V34.183H40.5228Z" fill="#57DDF3"/>
<path d="M35.1978 24.5991V18.8336C34.212 18.4343 33.1345 18.2096 32.003 18.2096C30.8713 18.2096 29.7938 18.4343 28.808 18.8336V24.5991H35.1978Z" fill="#C4E2E7"/>
<path d="M22.2889 34.183H2.18274V29.9235H22.2889V34.183Z" fill="#C2BBB3"/>
<path d="M16.0278 24.5991V18.8336C15.042 18.4343 13.9645 18.2096 12.833 18.2096C11.7012 18.2096 10.6237 18.4343 9.63794 18.8336V24.5991H16.0278Z" fill="#C2BBB3"/>
<path d="M61.8231 34.183H41.6753V29.9235H61.8231V34.183Z" fill="#88C35B"/>
<path d="M54.3678 24.5991V18.8336C53.382 18.4343 52.3046 18.2096 51.1731 18.2096C50.0413 18.2096 48.9638 18.4343 47.978 18.8336V24.5991H54.3678Z" fill="#88C35B"/>
<path d="M28.808 5.43086L26.6781 8.62562L29.8729 11.8204L33.0679 10.7556L34.133 12.8852L39.458 10.7556V7.5608L40.5229 4.36605L35.1979 1.1713L32.0031 3.30123H28.808V5.43086Z" fill="#ABC0D2"/>
<path d="M32.003 40.5725L25.6129 50.1565H38.3929L32.003 40.5725Z" fill="#88C35B"/>
<path d="M53.3031 41.6373V37.3778H49.0429V41.6373L46.913 45.8969V56.5457H55.433V45.8969L53.3031 41.6373Z" fill="#C4E2E7"/>
<path d="M10.7028 50.1565V48.0266C11.2895 48.0266 11.7679 47.5482 11.7679 46.9617C11.7679 46.3753 11.2895 45.8969 10.7028 45.8969C10.1164 45.8969 9.63799 46.3753 9.63799 46.9617H7.50806C7.50806 45.1982 8.93892 43.767 10.7028 43.767C12.4667 43.767 13.8979 45.1982 13.8979 46.9617C13.8979 48.7253 12.4667 50.1565 10.7028 50.1565Z" fill="#EA4B63"/>
<path d="M12.833 46.4667C11.98 46.4667 11.1772 46.134 10.5741 45.5309C9.32996 44.2827 9.32996 42.2611 10.5741 41.0133L12.08 42.5191C11.6639 42.9352 11.6639 43.609 12.08 44.025C12.4834 44.4284 13.1824 44.4284 13.5858 44.025C14.0019 43.609 14.0019 42.9352 13.5858 42.5191L15.092 41.0133C16.3358 42.2611 16.3358 44.2827 15.092 45.5309C14.4886 46.134 13.6858 46.4667 12.833 46.4667Z" fill="#EA4B63"/>
<path d="M14.963 50.1565C13.1991 50.1565 11.7679 48.7253 11.7679 46.9617C11.7679 45.1982 13.1991 43.767 14.963 43.767C16.7269 43.767 18.1581 45.1982 18.1581 46.9617H16.0278C16.0278 46.3753 15.5494 45.8969 14.963 45.8969C14.3763 45.8969 13.8979 46.3753 13.8979 46.9617C13.8979 47.5482 14.3763 48.0266 14.963 48.0266V50.1565Z" fill="#EA4B63"/>
<path d="M42.6531 34.183H21.3528V29.9235H42.6531V34.183Z" fill="#C4E2E7"/>
<path d="M60.7581 33.1182H43.7179V30.9883H60.7581V33.1182ZM58.6281 61.8704H43.7179V35.2478H58.6281V61.8704ZM43.7179 26.7287C43.7179 24.2037 44.9868 21.9701 46.913 20.6222V24.5991C46.913 25.1855 47.3914 25.6639 47.9781 25.6639H54.3679C54.9547 25.6639 55.4331 25.1855 55.4331 24.5991V20.6222C57.3593 21.9701 58.6281 24.2037 58.6281 26.7287V28.8587H43.7179V26.7287ZM49.0429 19.5864C49.717 19.3867 50.4325 19.2747 51.1732 19.2747C51.9136 19.2747 52.6291 19.3867 53.3031 19.5864V23.5343H49.0429V19.5864ZM41.588 33.1182H22.4179V30.9883H41.588V33.1182ZM41.588 61.8704H22.4179V35.2478H41.588V61.8704ZM24.5479 26.7287C24.5479 24.2037 25.8167 21.9701 27.7429 20.6222V24.5991C27.7429 25.1855 28.2213 25.6639 28.8081 25.6639H35.1979C35.7846 25.6639 36.263 25.1855 36.263 24.5991V20.6222C38.1892 21.9701 39.4581 24.2037 39.4581 26.7287V28.8587H24.5479V26.7287ZM29.8729 19.5864C30.5469 19.3867 31.2624 19.2747 32.0031 19.2747C32.7436 19.2747 33.459 19.3867 34.1331 19.5864V23.5343H29.8729V19.5864ZM20.288 28.8587H5.3778V26.7287C5.3778 24.2037 6.64261 21.9701 8.57286 20.6222V24.5991C8.57286 25.1855 9.05126 25.6639 9.63799 25.6639H16.0278C16.6145 25.6639 17.0929 25.1855 17.0929 24.5991V20.6222C19.0192 21.9701 20.288 24.2037 20.288 26.7287V28.8587ZM20.288 33.1182H3.24786V30.9883H20.288V33.1182ZM20.288 61.8704H5.3778V35.2478H20.288V61.8704ZM10.7028 19.5864C11.3769 19.3867 12.0923 19.2747 12.833 19.2747C13.5735 19.2747 14.2889 19.3867 14.963 19.5864V23.5343H10.7028V19.5864ZM61.8232 28.8587H60.7581V26.7287C60.7581 21.4417 56.4565 17.1448 51.1732 17.1448C45.8895 17.1448 41.588 21.4417 41.588 26.7287C41.588 21.4417 37.2865 17.1448 32.0031 17.1448C26.7195 17.1448 22.4179 21.4417 22.4179 26.7287C22.4179 21.4417 18.1164 17.1448 12.833 17.1448C7.5494 17.1448 3.24786 21.4417 3.24786 26.7287V28.8587H2.18274C1.59632 28.8587 1.11792 29.337 1.11792 29.9235V34.183C1.11792 34.7695 1.59632 35.2478 2.18274 35.2478H3.24786V62.9352C3.24786 63.5216 3.72625 64 4.31298 64H59.693C60.2797 64 60.7581 63.5216 60.7581 62.9352V35.2478H61.8232C62.4096 35.2478 62.888 34.7695 62.888 34.183V29.9235C62.888 29.337 62.4096 28.8587 61.8232 28.8587Z" fill="#100F0D"/>
<path d="M38.447 7.22377C38.4096 7.3321 38.3929 7.44846 38.3929 7.56081V10.0358L34.6488 11.5333L34.0207 10.2772C33.8377 9.91111 33.4633 9.69044 33.0679 9.69044C32.9556 9.69044 32.8433 9.7071 32.7309 9.74445L30.1599 10.6015L28.0467 8.48828L29.6942 6.02161C29.8105 5.84692 29.8729 5.64321 29.8729 5.43087V4.36605H32.0031C32.2152 4.36605 32.4189 4.30371 32.5939 4.18704L35.2272 2.4318L39.2417 4.84013L38.447 7.22377ZM35.7473 0.260499C35.3936 0.0481536 34.9525 0.056487 34.6071 0.285499L31.6828 2.23642H28.8081C28.2213 2.23642 27.7429 2.71451 27.7429 3.30124V5.11081L25.792 8.03488C25.509 8.45926 25.5673 9.02068 25.925 9.3784L29.1201 12.5732C29.4028 12.8562 29.8272 12.9602 30.2099 12.8312L32.5272 12.0574L33.1803 13.3636C33.3676 13.7336 33.742 13.95 34.1331 13.95C34.2661 13.95 34.3991 13.925 34.5281 13.8753L39.8531 11.7454C40.2568 11.5833 40.5229 11.1923 40.5229 10.7556V7.73118L41.534 4.70309C41.692 4.22871 41.5007 3.70896 41.0723 3.45494L35.7473 0.260499Z" fill="#100F0D"/>
<path d="M32.0031 42.4901L36.4044 49.0917H27.6016L32.0031 42.4901ZM25.613 51.2213H38.393C38.784 51.2213 39.1461 51.0049 39.3334 50.6599C39.5164 50.3145 39.4954 49.8944 39.2791 49.5657L32.8893 39.9818C32.4939 39.391 31.5121 39.391 31.117 39.9818L24.7269 49.5657C24.5106 49.8944 24.4899 50.3145 24.6729 50.6599C24.8599 51.0049 25.222 51.2213 25.613 51.2213Z" fill="#100F0D"/>
<path d="M47.9781 46.9617H54.3679V55.4809H47.9781V46.9617ZM49.7003 42.7022H52.6457L53.7108 44.8321H48.6352L49.7003 42.7022ZM50.108 38.4426H52.238V40.5725H50.108V38.4426ZM46.913 57.6108H55.433C56.0198 57.6108 56.4981 57.1324 56.4981 56.5457V45.8969C56.4981 45.8802 56.4898 45.8676 56.4898 45.8552C56.4855 45.7429 56.4648 45.6389 56.4231 45.5309C56.4148 45.5059 56.4108 45.4809 56.3981 45.4602C56.3941 45.4475 56.3941 45.4352 56.3858 45.4185L54.3679 41.3876V37.3778C54.3679 36.791 53.8895 36.313 53.3031 36.313H49.0429C48.4565 36.313 47.9781 36.791 47.9781 37.3778V41.3876L45.9602 45.4185C45.9522 45.4352 45.9522 45.4475 45.9478 45.4602C45.9355 45.4809 45.9312 45.5059 45.9228 45.5309C45.8812 45.6389 45.8605 45.7429 45.8562 45.8552C45.8562 45.8676 45.8481 45.8802 45.8481 45.8969V56.5457C45.8481 57.1324 46.3265 57.6108 46.913 57.6108Z" fill="#100F0D"/>
<path d="M10.7028 45.8969C11.2895 45.8969 11.7679 46.3753 11.7679 46.9617C11.7679 47.5482 11.2895 48.0266 10.7028 48.0266V50.1565C11.5226 50.1565 12.267 49.8361 12.8331 49.3244C13.3988 49.8361 14.1432 50.1565 14.963 50.1565V48.0266C14.3763 48.0266 13.8979 47.5482 13.8979 46.9617C13.8979 46.3753 14.3763 45.8969 14.963 45.8969C15.5494 45.8969 16.0278 46.3753 16.0278 46.9617H18.1581C18.1581 45.5475 17.226 44.3577 15.9488 43.9377C16.1695 42.9185 15.8865 41.8077 15.092 41.0133L13.5858 42.5191C14.0019 42.9352 14.0019 43.609 13.5858 44.025C13.1824 44.4284 12.4834 44.4284 12.08 44.025C11.6639 43.609 11.6639 42.9352 12.08 42.5191L10.5741 41.0133C9.77935 41.8077 9.49633 42.9185 9.71701 43.9377C8.43985 44.3577 7.50806 45.5475 7.50806 46.9617H9.63799C9.63799 46.3753 10.1164 45.8969 10.7028 45.8969Z" fill="#100F0D"/>
</g>
<defs>
<clipPath id="clip0_105_387">
<rect width="64" height="64" fill="white"/>
</clipPath>
</defs>
</svg>
