<svg width="268" height="151" viewBox="0 0 268 151" fill="none" xmlns="http://www.w3.org/2000/svg">
<path d="M89.4766 124.938C88.8907 124.938 88.4945 124.645 88.2873 124.058L75.5706 82.2128C75.5299 82.1298 75.5096 82.0045 75.5096 81.8371C75.5096 81.2938 75.8222 81.0215 76.4488 81.0215H83.713C84.2982 81.0215 84.6944 81.3142 84.9024 81.8982L93.1087 112.139C93.1509 112.307 93.2345 112.39 93.3588 112.39C93.4846 112.39 93.5682 112.307 93.6089 112.139L101.69 81.9623C101.9 81.3353 102.296 81.0215 102.88 81.0215H109.958C110.333 81.0215 110.605 81.1373 110.772 81.3681C110.938 81.5975 110.959 81.8793 110.836 82.2128L97.9331 124.058C97.7237 124.645 97.326 124.938 96.7408 124.938H89.4766Z" fill="#A1F7A1"/>
<path d="M241.505 44.1494C241.505 42.2896 239.866 41.5236 239.32 41.5236L210.33 41.6131C207.528 41.6131 205.343 44.0402 205.343 46.6661C205.343 48.8165 206.271 49.8396 208.511 49.8396C208.511 49.8396 209.632 51.4817 211.461 51.4817C213.537 51.4817 214.083 50.278 214.083 50.278C214.083 50.278 215.503 50.9341 216.13 50.1549C216.726 50.8059 217.572 51.1693 218.453 51.1533C220.42 51.1533 220.856 49.9496 220.856 49.9496C221.378 50.4317 221.773 50.8249 223.479 50.8249C224.462 50.8249 225.663 50.3872 225.991 49.6212C226.756 50.7156 228.795 50.2001 228.832 50.278C229.417 51.2953 230.5 51.9216 231.672 51.9194C233.407 51.9194 234.198 50.8831 234.403 50.5984C235.013 51.023 235.737 51.2545 236.48 51.2625C237.165 51.2625 238.243 51.0171 238.883 50.278C240.303 48.6359 239.975 46.6661 239.975 46.6661C239.975 46.6661 241.505 46.1192 241.505 44.1494Z" fill="#589442"/>
<path d="M221.402 56.1866C221.184 56.1866 221.075 56.1866 220.822 55.9682C220.394 55.446 219.959 54.5948 219.655 53.9984C218.793 52.2958 217.579 51.3718 216.268 50.0588C215.176 48.9643 215.066 46.9945 215.066 46.8853C214.974 46.8096 214.857 46.7702 214.739 46.7761C214.602 46.7761 214.535 48.1983 215.066 49.5119C215.385 50.3006 216.093 50.9341 216.645 51.5261C217.779 52.7444 218.672 53.8891 218.672 53.8891C218.672 53.8891 218.781 55.0929 219.764 56.7342C220.31 57.6518 221.402 58.5649 221.402 59.2509V65.9263C221.402 65.9263 220.713 67.3237 219.983 67.5677C218.344 68.1146 217.882 69.1173 217.142 69.3183C217.688 69.3183 218.41 69.0889 218.562 68.9899C218.781 68.8457 219.224 68.7896 219.546 68.7714C220.227 68.7321 220.271 68.5435 220.897 68.2799C221.161 68.1706 221.445 68.1146 221.73 68.1146C222.604 68.1146 223.184 68.6782 223.807 68.9899C224.117 69.126 224.451 69.2003 224.79 69.2091C225.008 69.2091 225.226 69.2032 225.226 69.0998C225.226 68.8806 224.79 68.7714 224.614 68.7015C224.395 68.6199 224.134 68.443 224.134 68.3338C224.134 68.2238 224.68 68.0053 225.445 68.0053C226.319 68.0053 226.756 68.2238 227.193 68.2238C227.302 68.2238 227.521 68.2238 227.521 68.1146C227.521 67.8961 226.276 67.4716 225.663 67.3485C225.117 67.2393 224.373 66.6582 224.244 66.254C224.108 65.7545 224.035 65.2404 224.025 64.7226C224.025 63.1905 223.786 61.8397 223.786 60.1546C223.786 58.8132 224.236 58.2372 224.363 58.0756C225.057 57.1813 225.166 56.4954 225.882 54.6559C226.635 52.7226 228.055 50.7688 228.504 48.7466C228.52 48.6745 228.723 47.9805 228.723 47.7621C228.723 47.6521 228.614 47.5429 228.286 47.5429C227.958 47.5429 228.025 47.7795 227.849 48.3089C227.521 49.2942 227.447 49.608 227.193 50.0595C226.975 50.4484 226.537 50.9356 225.991 50.9356C225.572 50.9356 225.226 49.8411 225.008 48.6374C224.848 47.7519 224.948 46.6071 224.899 46.5583C224.805 46.487 224.689 46.4484 224.571 46.4484C224.571 46.4484 224.025 48.6374 225.274 51.3841C225.768 52.4786 225.535 53.2134 225.008 54.2183C224.619 54.9603 224.555 55.1351 224.134 55.8597C223.977 56.1298 223.807 56.4065 223.588 56.4065C223.042 56.4065 223.042 56.0789 223.042 56.0789C222.892 56.0789 222.714 55.9689 222.714 55.6405C222.714 54.1091 222.198 52.5682 221.73 51.0448C221.293 49.6219 221.184 49.0532 221.184 47.8713C221.184 47.2144 221.73 45.9015 221.73 45.683C221.73 45.4639 221.402 45.4639 221.402 45.4639C221.075 46.2299 220.529 47.6521 220.856 49.8411C221.005 50.8358 221.293 52.0118 221.402 53.0146C221.482 53.7195 221.949 54.6559 221.949 55.3128C221.949 55.9689 221.621 56.1866 221.402 56.1866Z" fill="#5D4037"/>
<path d="M211.898 48.5267C211.851 48.3388 212.007 48.3082 212.117 48.3082C212.199 48.3191 212.276 48.3577 212.335 48.4174C212.335 48.4174 212.423 48.9468 213.427 49.5119C213.7 49.6663 213.994 49.7777 214.301 49.8396C214.526 49.8957 214.801 50.0224 215.066 50.0588C215.066 50.0588 214.411 48.089 214.411 46.8853C214.503 46.8096 214.62 46.7702 214.739 46.7761C214.739 49.7304 215.941 50.168 216.705 51.1533C217.032 51.58 217.523 52.0708 218.125 52.7947C218.672 53.4508 218.931 53.812 219.218 54.6545C219.52 55.7927 220.28 56.6891 220.966 57.3903C221.347 57.7799 222.129 58.4972 222.167 59.4701C222.174 59.6259 222.277 60.5638 222.277 61.8775C222.277 63.1672 222.495 63.8466 222.495 65.1603C222.495 66.5824 221.949 67.2393 221.293 67.4585C220.55 67.7068 219.996 67.5575 218.562 68.5522C217.696 69.153 217.447 69.3066 217.251 69.3183C217.127 69.3263 217.032 69.3183 217.032 69.2091C217.032 69.1544 217.417 68.9746 217.688 68.7714C217.854 68.6469 218.001 68.4998 218.125 68.3338L218.672 67.7862L218.89 67.6769C218.89 67.414 218.662 67.342 218.453 67.3485C217.716 67.374 216.859 68.2974 216.814 68.3338C216.524 68.5347 216.183 68.6491 215.831 68.6622C215.613 68.6622 215.503 68.6622 215.503 68.5522C215.503 68.3338 216.301 68.3338 216.596 67.8961C217.032 67.2393 217.797 66.8016 218.781 66.5824C219.954 66.321 219.983 65.1603 219.983 64.5034V60.1262C219.983 59.3601 219.546 58.1411 219.218 57.5003C218.641 56.3862 218.516 55.3703 218.016 54.2168C217.688 53.1231 216.923 52.5755 216.05 51.2625C215.722 50.8249 215.51 50.8467 215.394 50.8249C212.553 50.278 212.007 48.9643 211.898 48.5267Z" fill="#8D6E63"/>
<path d="M239.32 39.4438C239.402 39.2355 239.439 39.012 239.429 38.7877C239.423 38.3027 239.178 37.852 238.773 37.584C238.475 37.4128 238.133 37.3371 237.79 37.3648C237.937 36.8674 238.011 36.3511 238.008 35.8326C238.008 33.4252 235.933 32.4407 234.513 32.4407C232.547 32.4407 231.563 33.316 231.563 33.316C231.563 31.912 230.811 31.1277 229.815 31.1277C229.05 31.1277 228.723 31.4554 228.723 31.4554C228.723 31.4554 227.849 29.3764 225.882 29.3764C224.462 29.3764 223.807 30.3617 223.807 30.3617C223.807 30.3617 222.386 27.4066 219.546 27.4066C217.646 27.3848 215.975 28.6613 215.493 30.5015C214.994 30.6136 214.585 30.9734 214.411 31.4554C214.411 31.4554 214.083 31.237 213.427 31.237C212.414 31.237 211.571 31.9834 211.571 33.316C211.571 33.316 210.806 32.2215 208.948 32.2215C206.436 32.2215 205.343 33.9728 205.343 35.6142C205.335 36.1785 205.446 36.7378 205.671 37.2556C205.671 37.2556 204.032 37.584 204.032 39.5538C203.254 39.781 202.612 40.799 202.612 42.0704C202.612 43.821 204.25 44.5871 204.25 44.5871C204.25 44.5871 204.032 45.0247 204.032 45.9008C204.032 46.9945 204.731 48.609 206.916 48.609C208.277 48.609 209.057 47.5421 209.057 47.5421C209.057 47.5421 209.89 48.2419 211.571 47.7606C213.864 47.1045 213.646 44.9155 213.646 44.9155C213.979 45.2046 214.407 45.3597 214.848 45.3532C215.874 45.3532 216.705 44.5201 216.705 43.4933C216.705 43.4591 216.705 43.4263 216.699 43.3936L216.705 43.3834C216.705 43.3834 217.469 44.2587 218.999 44.2587C220.747 44.2587 221.512 43.1649 221.512 43.1649C221.84 43.6026 222.823 44.2587 224.025 44.2587C225.772 44.2587 226.428 43.3834 226.428 43.3834C226.428 43.3834 227.521 46.4477 230.798 46.4477C233.311 46.4477 234.34 44.622 234.34 44.622C234.917 45.0852 235.631 45.3422 236.37 45.3532C239.538 45.3532 239.975 42.5387 239.975 41.5235C239.975 40.1006 239.32 39.4438 239.32 39.4438Z" fill="#70B970"/>
<path d="M205.343 38.2401C205.667 38.4556 206.047 38.57 206.436 38.5685C206.873 38.5685 207.442 38.4338 208.074 37.584C208.074 37.584 208.402 38.5685 209.822 38.5685C211.243 38.5685 211.68 37.9124 211.68 37.9124C211.68 37.9124 212.116 38.4724 213.22 38.4724C214.848 38.4724 215.167 37.5075 215.167 37.5075C215.167 37.5075 215.613 37.9124 216.159 37.9124C216.534 37.9204 216.896 37.7791 217.168 37.5206C217.168 37.5206 217.36 39.1161 215.94 39.1161C215.702 39.127 215.469 39.0491 215.285 38.8969C215.285 38.8969 214.629 40.1006 213.209 40.1006C212.335 40.1006 211.898 39.7722 211.898 39.7722C211.409 40.271 210.738 40.5478 210.041 40.5383C209.235 40.5609 208.481 40.1414 208.074 39.4438C208.074 39.4438 207.747 39.7722 206.982 39.7722C205.452 39.7722 205.343 38.2401 205.343 38.2401Z" fill="#589442"/>
<path d="M232.656 41.3043C232.352 41.2912 232.055 41.2162 231.782 41.0852C231.289 41.6553 230.568 41.9765 229.815 41.9612C229.009 41.9838 228.255 41.5636 227.849 40.8667C227.516 41.1565 227.088 41.3124 226.647 41.3043C225.117 41.3043 224.68 39.663 224.68 39.663C224.68 39.663 225.226 40.1006 225.882 40.1006C226.537 40.1006 227.302 39.8814 227.739 39.0061C227.739 39.0061 228.395 39.9914 229.596 39.9914C230.798 39.9914 231.345 39.3346 231.345 39.3346C231.345 39.3346 232 39.8814 232.765 39.8814C233.372 39.8683 233.955 39.6353 234.403 39.2253C234.403 39.2253 234.185 41.3043 232.656 41.3043Z" fill="#589442"/>
<path d="M220.822 55.9682C221.189 56.1014 221.354 55.9136 221.424 55.5829C221.482 55.2582 221.469 54.9247 221.384 54.6057C221.091 53.3066 220.96 51.9682 220.619 50.6923C220.212 49.2075 219.677 48.1218 218.453 47.1045C218.087 46.7761 217.757 46.4091 217.469 46.01C217.388 45.8454 217.6 45.4872 217.797 45.4624C217.876 45.458 217.95 45.5017 217.986 45.5724C218.453 46.2285 219.578 47.5421 220.201 47.5421C220.42 47.5421 220.449 47.1635 220.529 46.8853C220.747 46.1192 220.856 45.4624 221.402 45.4624C221.293 46.01 220.856 47.6514 220.856 48.4174C220.856 48.8959 220.987 49.6212 221.075 50.0588C221.273 51.0433 221.621 52.0111 221.73 53.0131C221.809 53.718 222.058 54.286 222.058 54.9829C222.058 55.4206 221.949 56.4058 221.512 56.4058C221.184 56.4058 221.075 56.2966 220.822 55.9682Z" fill="#8D6E63"/>
<path d="M225.445 51.3717C225.087 50.7885 224.571 48.5267 224.571 46.4476C224.342 46.428 224.244 46.5569 224.244 46.6661C224.244 46.9239 224.244 47.9798 224.244 48.5267C224.244 48.8551 224.571 50.4965 224.899 51.3717C225.035 51.7373 225.008 52.089 225.008 52.4662C225.008 53.0131 224.609 53.8469 224.462 54.1076C223.855 55.1781 223.479 56.0774 223.042 56.0774C223.042 56.6461 223.916 56.7342 224.025 56.7342C224.353 56.7342 224.605 56.5995 224.68 56.2966C224.79 55.8582 224.728 55.5065 225.117 54.7644C225.445 54.136 225.754 53.1406 225.772 52.4662C225.784 52.0614 225.68 51.7541 225.445 51.3717Z" fill="#8D6E63"/>
<path d="M113.253 101.125C113.253 100.253 113.28 99.6 113.337 99.1645C113.395 98.7298 113.556 98.2281 113.82 97.6586C114.349 96.6741 115.824 96.1818 118.246 96.1818C120.06 96.1818 121.345 96.5037 122.102 97.1459C122.743 97.6783 123.083 98.4931 123.122 99.5898C123.159 99.9685 123.177 100.518 123.177 101.238V121.121C123.177 121.994 123.149 122.647 123.093 123.082C123.036 123.517 122.858 124.019 122.555 124.588C122.062 125.572 120.607 126.064 118.187 126.064C115.804 126.064 114.349 125.553 113.82 124.529C113.556 123.963 113.395 123.471 113.337 123.055C113.28 122.638 113.253 121.975 113.253 121.066V101.125ZM122.581 90.5863C122.298 91.1361 121.797 91.5242 121.078 91.7514C120.36 91.9786 119.406 92.0922 118.214 92.0922C117.023 92.0922 116.068 91.9786 115.349 91.7514C114.632 91.5242 114.131 91.1266 113.849 90.5572C113.565 89.9884 113.395 89.4867 113.337 89.0513C113.28 88.6165 113.253 87.964 113.253 87.0938C113.253 86.2222 113.28 85.569 113.337 85.1335C113.395 84.6966 113.556 84.2131 113.82 83.6829C114.349 82.6598 115.824 82.1479 118.246 82.1479C120.626 82.1479 122.062 82.6598 122.555 83.6829C122.858 84.2524 123.036 84.7541 123.093 85.1889C123.149 85.6243 123.177 86.2775 123.177 87.1492C123.177 88.0194 123.149 88.6726 123.093 89.1095C123.036 89.545 122.866 90.0372 122.581 90.5863Z" fill="#A1F7A1"/>
<path d="M128.566 87.0356C128.566 86.1639 128.594 85.5107 128.65 85.0753C128.708 84.6405 128.869 84.1388 129.133 83.5693C129.662 82.5462 131.137 82.0343 133.559 82.0343C135.864 82.0343 137.3 82.5462 137.869 83.5693C138.171 84.1388 138.35 84.65 138.407 85.1044C138.463 85.5588 138.491 86.2215 138.491 87.0909V113.397C138.491 114.76 138.604 115.621 138.831 115.98C139.058 116.34 139.559 116.519 140.335 116.519C141.11 116.519 141.629 116.548 141.893 116.606C142.159 116.663 142.481 116.823 142.859 117.087C143.615 117.581 143.993 118.925 143.993 121.121C143.993 123.508 143.615 124.966 142.859 125.496C141.876 126.178 139.532 126.292 135.827 125.837C132.915 125.458 131.024 124.493 130.154 122.939C129.095 121.085 128.566 118.131 128.566 114.078V87.0356Z" fill="#A1F7A1"/>
<path d="M147.963 87.0356C147.963 86.1639 147.991 85.5107 148.047 85.0753C148.105 84.6405 148.266 84.1388 148.53 83.5693C149.059 82.5462 150.534 82.0343 152.956 82.0343C155.261 82.0343 156.697 82.5462 157.266 83.5693C157.568 84.1388 157.747 84.65 157.804 85.1044C157.86 85.5588 157.888 86.2215 157.888 87.0909V113.397C157.888 114.76 158.001 115.621 158.228 115.98C158.455 116.34 158.956 116.519 159.732 116.519C160.507 116.519 161.026 116.548 161.29 116.606C161.556 116.663 161.878 116.823 162.256 117.087C163.012 117.581 163.39 118.925 163.39 121.121C163.39 123.508 163.012 124.966 162.256 125.496C161.273 126.178 158.929 126.292 155.224 125.837C152.312 125.458 150.421 124.493 149.551 122.939C148.492 121.085 147.963 118.131 147.963 114.078V87.0356Z" fill="#A1F7A1"/>
<path d="M186.759 99.3073C186.986 97.1853 188.478 96.1236 191.237 96.1236C192.713 96.1236 193.809 96.2371 194.526 96.4643C195.245 96.6915 195.746 97.0899 196.03 97.6586C196.315 98.2281 196.485 98.7298 196.542 99.1645C196.598 99.6 196.626 100.253 196.626 101.125V121.008C196.626 121.88 196.598 122.533 196.542 122.968C196.485 123.403 196.324 123.905 196.059 124.474C195.53 125.458 194.234 125.951 192.174 125.951C190.113 125.951 188.732 125.696 188.033 125.185C187.335 124.672 186.929 123.923 186.814 122.939C185.414 124.947 183.079 125.951 179.809 125.951C176.538 125.951 173.505 124.455 170.707 121.462C167.91 118.47 166.511 114.995 166.511 111.037C166.511 107.08 167.919 103.615 170.736 100.641C173.553 97.6688 176.644 96.1818 180.01 96.1818C181.295 96.1818 182.467 96.409 183.525 96.8634C184.584 97.3178 185.32 97.7445 185.736 98.1421C186.152 98.5405 186.493 98.9286 186.759 99.3073ZM176.436 111.125C176.436 112.373 176.927 113.5 177.91 114.503C178.893 115.508 180.083 116.009 181.481 116.009C182.881 116.009 184.044 115.499 184.971 114.477C185.897 113.454 186.361 112.327 186.361 111.095C186.361 109.865 185.916 108.719 185.026 107.658C184.138 106.598 182.947 106.068 181.452 106.068C179.959 106.068 178.749 106.598 177.823 107.658C176.898 108.719 176.436 109.874 176.436 111.125Z" fill="#A1F7A1"/>
<path d="M220.956 122.316C219.52 124.209 217.232 125.156 214.093 125.156C210.956 125.156 208.017 123.707 205.276 120.81C202.535 117.913 201.165 114.533 201.165 110.67C201.165 106.806 202.544 103.416 205.303 100.499C208.063 97.5821 211.088 96.1236 214.378 96.1236C215.664 96.1236 216.836 96.3609 217.894 96.8343C218.953 97.3083 219.68 97.7445 220.078 98.1421C220.475 98.5405 220.788 98.9097 221.014 99.249C221.129 98.1887 221.516 97.3841 222.178 96.8343C222.838 96.2852 223.906 96.01 225.379 96.01C226.854 96.01 227.933 96.1236 228.613 96.3508C229.295 96.578 229.778 96.9668 230.061 97.5159C230.344 98.0657 230.513 98.5492 230.57 98.9665C230.628 99.3823 230.657 100.026 230.657 100.898V124.416C230.657 128.771 229.144 132.284 226.118 134.954C223.094 137.624 219.691 138.959 215.911 138.959C213.036 138.959 210.293 138.258 207.684 136.856C205.077 135.456 203.773 134.188 203.773 133.052C203.773 131.574 204.34 130.267 205.474 129.132C206.191 128.337 206.749 127.789 207.146 127.486C207.543 127.183 208.007 127.031 208.536 127.031C209.066 127.031 209.614 127.259 210.182 127.713C211.997 129.113 213.963 129.813 216.08 129.813C217.516 129.813 218.688 129.245 219.595 128.109C220.503 126.973 220.956 125.61 220.956 124.02V122.316ZM210.863 110.696C210.863 111.928 211.344 113.035 212.308 114.02C213.271 115.004 214.443 115.497 215.824 115.497C217.204 115.497 218.348 114.996 219.255 113.994C220.162 112.99 220.616 111.892 220.616 110.699C220.616 109.505 220.181 108.388 219.31 107.347C218.442 106.304 217.27 105.782 215.795 105.782C214.321 105.782 213.131 106.294 212.224 107.317C211.316 108.339 210.863 109.466 210.863 110.696Z" fill="#A1F7A1"/>
<path d="M264.856 107.516C264.856 109.844 264.279 111.567 263.126 112.686C261.972 113.803 260.696 114.361 259.299 114.361H245.855C245.855 115.421 246.479 116.311 247.728 117.032C248.976 117.75 250.224 118.109 251.47 118.109C253.663 118.109 255.383 117.882 256.632 117.428L257.257 117.201C258.165 116.786 258.921 116.577 259.526 116.577C260.735 116.577 261.775 117.43 262.646 119.135C263.136 120.156 263.381 121.027 263.381 121.748C263.381 125.119 259.355 126.804 251.302 126.804C248.502 126.804 246.015 126.321 243.84 125.356C241.666 124.389 239.975 123.111 238.765 121.52C236.385 118.452 235.194 115.024 235.194 111.235C235.194 106.464 236.734 102.65 239.815 99.7908C242.898 96.9304 246.745 95.5002 251.357 95.5002C256.612 95.5002 260.469 97.3557 262.928 101.067C264.213 103.036 264.856 105.185 264.856 107.516ZM252.889 109.19C254.326 109.19 255.044 108.585 255.044 107.373C255.044 106.503 254.713 105.803 254.05 105.273C253.388 104.741 252.443 104.475 251.214 104.475C249.987 104.475 248.767 104.977 247.556 105.98C246.347 106.985 245.742 108.054 245.742 109.19H252.889Z" fill="#A1F7A1"/>
<path d="M163.245 43.6892L142.253 27.4277C142.164 27.3586 142.071 27.298 141.971 27.2445C141.871 27.1909 141.769 27.1465 141.661 27.1099C141.554 27.0733 141.444 27.0465 141.332 27.0275C141.22 27.0092 141.107 27 140.993 27C140.879 27 140.766 27.0092 140.654 27.0275C140.542 27.0465 140.432 27.0733 140.325 27.1099C140.218 27.1465 140.114 27.1909 140.015 27.2445C139.916 27.298 139.822 27.3586 139.734 27.4277L118.741 43.6892C118.639 43.7688 118.546 43.8561 118.462 43.9534C118.378 44.0499 118.305 44.1535 118.242 44.2641C118.179 44.3747 118.129 44.4895 118.09 44.61C118.051 44.7298 118.024 44.8524 118.011 44.9771C117.997 45.1025 117.997 45.2272 118.008 45.3526C118.021 45.478 118.045 45.6006 118.082 45.7211C118.12 45.8415 118.169 45.9578 118.23 46.0691C118.292 46.1797 118.363 46.2847 118.446 46.3819C118.529 46.4799 118.621 46.5686 118.722 46.6489C118.823 46.7293 118.931 46.7997 119.046 46.8596C119.162 46.9195 119.282 46.9681 119.408 47.0054C119.533 47.0428 119.661 47.0681 119.792 47.0808C119.923 47.0942 120.053 47.0949 120.184 47.0836C120.315 47.0717 120.444 47.0484 120.569 47.0125C120.696 46.9766 120.817 46.9294 120.933 46.8709C121.049 46.8124 121.158 46.7434 121.26 46.6644L122 46.129V69.0865C122 69.2126 122.013 69.3366 122.038 69.4599C122.064 69.5832 122.102 69.7029 122.152 69.8192C122.202 69.9347 122.264 70.0453 122.337 70.1496C122.41 70.2539 122.492 70.3504 122.586 70.4399C122.678 70.5287 122.78 70.6076 122.888 70.6773C122.998 70.7471 123.113 70.8063 123.234 70.8542C123.356 70.9021 123.48 70.9387 123.609 70.9634C123.738 70.9873 123.868 71 123.999 71H157.987C158.118 71 158.248 70.9873 158.377 70.9634C158.505 70.9387 158.631 70.9021 158.752 70.8542C158.873 70.8063 158.989 70.7471 159.097 70.6773C159.207 70.6076 159.308 70.5287 159.401 70.4399C159.493 70.3504 159.576 70.2539 159.649 70.1496C159.722 70.0453 159.784 69.9347 159.834 69.8192C159.884 69.7029 159.922 69.5832 159.947 69.4599C159.973 69.3366 159.986 69.2126 159.986 69.0865V46.129L160.726 46.7025C160.829 46.7814 160.94 46.8504 161.057 46.9082C161.175 46.9667 161.297 47.0132 161.424 47.0484C161.551 47.0836 161.68 47.1062 161.813 47.1175C161.944 47.128 162.076 47.1259 162.208 47.1125C162.339 47.0984 162.468 47.0717 162.593 47.0336C162.72 46.9956 162.841 46.9456 162.957 46.8843C163.072 46.8237 163.181 46.7518 163.283 46.6708C163.384 46.5891 163.476 46.4989 163.558 46.4002C163.641 46.3009 163.712 46.1952 163.773 46.0832C163.834 45.9705 163.883 45.8535 163.92 45.7323C163.957 45.6105 163.981 45.4865 163.992 45.3603C164.004 45.2342 164.002 45.1088 163.988 44.9827C163.973 44.8566 163.946 44.7333 163.906 44.6128C163.867 44.4923 163.814 44.3761 163.75 44.2655C163.687 44.1542 163.612 44.0506 163.527 43.9534C163.443 43.8568 163.348 43.7688 163.245 43.6892ZM135.995 67.1736V55.6945H145.991V67.1736H135.995ZM155.988 67.1736H149.99V53.7817C149.99 53.6556 149.977 53.5316 149.951 53.4083C149.926 53.285 149.888 53.1652 149.838 53.049C149.788 52.9335 149.726 52.8228 149.653 52.7186C149.58 52.6143 149.497 52.5171 149.404 52.4283C149.312 52.3395 149.21 52.2606 149.102 52.1909C148.992 52.1211 148.877 52.0619 148.756 52.014C148.634 51.9654 148.509 51.9295 148.38 51.9048C148.252 51.8802 148.122 51.8682 147.991 51.8682H133.996C133.864 51.8682 133.734 51.8802 133.606 51.9048C133.477 51.9295 133.351 51.9654 133.23 52.014C133.109 52.0619 132.994 52.1211 132.885 52.1909C132.775 52.2606 132.675 52.3395 132.582 52.4283C132.489 52.5171 132.406 52.6143 132.333 52.7186C132.261 52.8228 132.199 52.9335 132.148 53.049C132.098 53.1652 132.06 53.285 132.035 53.4083C132.009 53.5316 131.996 53.6556 131.996 53.7817V67.1736H125.999V42.991L140.993 31.3689L155.988 42.991V67.1736Z" fill="#A1F7A1"/>
<path d="M176.728 47.2545C176.728 48.6009 175.637 49.6932 174.292 49.6932C172.946 49.6932 171.855 48.6009 171.855 47.2545C171.855 45.9073 172.946 44.8157 174.292 44.8157C175.637 44.8157 176.728 45.9073 176.728 47.2545Z" fill="#57DDF3"/>
<path d="M172.956 50.085V50.0836C172.939 50.0836 172.922 50.0836 172.905 50.0836C172.887 50.0836 172.87 50.0836 172.853 50.0836V50.085C168.259 50.1746 166.627 56.1735 167.464 56.593C168.146 56.9338 170.066 53.1522 170.748 53.1522C171.429 53.1522 170.742 55.098 170.438 56.6243C169.787 59.8793 169.136 68.7146 170.128 68.7146C171.106 68.7146 171.581 60.5267 172.905 60.3184C174.228 60.5267 174.703 68.7146 175.682 68.7146C176.673 68.7146 176.022 59.8793 175.372 56.6243C175.067 55.098 174.381 53.1522 175.062 53.1522C175.743 53.1522 177.663 56.9338 178.345 56.593C179.183 56.1735 177.55 50.1746 172.956 50.085Z" fill="#57DDF3"/>
<path d="M194.671 47.5494C194.671 48.8798 193.595 49.9576 192.266 49.9576C190.937 49.9576 189.86 48.8798 189.86 47.5494C189.86 46.2197 190.937 45.1413 192.266 45.1413C193.595 45.1413 194.671 46.2197 194.671 47.5494Z" fill="#57DDF3"/>
<path d="M193.559 50.318V50.3159C193.542 50.3159 193.526 50.3166 193.508 50.3166C193.492 50.3166 193.474 50.3159 193.457 50.3159V50.318C188.921 50.4062 187.308 56.3308 188.136 56.7444C188.808 57.0816 190.705 53.3466 191.378 53.3466C191.56 53.3466 191.643 53.4879 191.661 53.7231C191.301 55.0783 190.107 59.4439 189.311 60.8974C189.08 61.3204 189.581 61.6365 190.444 61.8462C190.176 65.2243 190.147 68.7146 190.766 68.7146C191.46 68.7146 191.897 64.5529 192.572 62.1244C193.184 62.1586 193.827 62.1637 194.45 62.1411C195.122 64.5704 195.559 68.7146 196.251 68.7146C196.865 68.7146 196.841 65.2768 196.578 61.9219C197.651 61.7159 198.323 61.3743 198.062 60.8974C197.156 59.2414 195.734 53.8076 195.614 53.3488C195.622 53.3481 195.63 53.3466 195.639 53.3466C196.312 53.3466 198.208 57.0816 198.881 56.7444C199.708 56.3308 198.096 50.4062 193.559 50.318Z" fill="#57DDF3"/>
<path d="M185.041 55.808C185.041 56.7896 184.246 57.584 183.266 57.584C182.287 57.584 181.492 56.7896 181.492 55.808C181.492 54.8271 182.287 54.0326 183.266 54.0326C184.246 54.0326 185.041 54.8271 185.041 55.808Z" fill="#57DDF3"/>
<path d="M183.304 58.0676V58.0661C183.292 58.0661 183.242 58.0661 183.229 58.0661L183.125 58.0697C179.834 58.018 178.708 56.4662 178.473 56.8318C177.941 57.6605 181.373 59.3674 181.669 59.6747C181.917 59.9332 181.692 61.5746 181.47 62.6865C180.997 65.0568 180.523 68.8566 181.244 68.8566C181.957 68.8566 182.303 64.7758 183.266 64.6236C184.23 64.7758 184.576 68.8566 185.289 68.8566C186.011 68.8566 185.538 65.0568 185.064 62.6865C184.841 61.5746 184.368 59.7759 184.85 59.6601C186.913 59.1635 188.12 57.2913 187.824 57.0386C187.553 56.8085 186.496 58.1768 183.304 58.0676Z" fill="#57DDF3"/>
<path d="M185.141 67.2087C201.204 65.7472 205.855 58.4965 229.314 65.0474C247.763 70.1987 251.833 76.6862 259.064 83.8175C259.077 83.827 259.089 83.8394 259.101 83.851C259.371 84.1168 259.647 84.3855 259.93 84.6549C259.947 84.6695 259.957 84.6812 259.962 84.6855C236.616 65.3933 214.92 69.4676 192.951 74.38C182.412 76.7372 176.142 76.7139 172.469 76.0498L175.019 66.8883C178.45 67.339 181.895 67.5036 185.141 67.2087Z" fill="#C8AD88"/>
<path d="M165.185 67.4738C148.986 66.5329 144.102 59.4322 120.692 66.7426C102.283 72.4925 98.3735 79.1119 91.3035 86.4784C91.2911 86.4886 91.2788 86.501 91.2679 86.5133C91.0032 86.7879 90.7343 87.0653 90.4573 87.3435C90.4398 87.3595 90.4304 87.3712 90.426 87.3755C113.358 67.3252 135.297 70.6975 157.535 74.8985C168.202 76.9149 174.509 76.6884 178.184 75.9056L175.357 66.8257C171.919 67.3871 168.458 67.6638 165.185 67.4738Z" fill="#C8AD88"/>
<path d="M209.818 79.2932C217.799 77.6307 219.716 73.7217 231.871 75.6544C241.43 77.1741 243.847 80.1962 247.888 83.3588C247.895 83.3624 247.902 83.3682 247.909 83.3733C248.059 83.4913 248.213 83.61 248.37 83.7287C248.381 83.7352 248.386 83.7403 248.389 83.7425C235.556 75.4061 224.899 78.7055 214.152 82.442C208.998 84.2348 205.848 84.5858 203.966 84.4649L204.719 79.7177C206.467 79.7454 208.206 79.6289 209.818 79.2932Z" fill="#C8AD88"/>
<path d="M199.815 80.5799C191.628 81.0438 188.767 77.7611 177.435 82.7849C168.524 86.7354 166.943 90.2847 163.818 94.3917C163.813 94.3976 163.807 94.4049 163.802 94.4114C163.685 94.5643 163.566 94.7194 163.443 94.8753C163.435 94.884 163.431 94.8906 163.43 94.8927C173.787 83.5015 184.996 83.926 196.402 84.7496C201.874 85.145 205.027 84.6673 206.827 84.0615L204.885 79.6668C203.19 80.1474 201.47 80.486 199.815 80.5799Z" fill="#C8AD88"/>
<g filter="url(#filter0_d_244_105)">
<path d="M64.1528 125.615H13.4899C12.1071 125.615 11.1068 125.305 10.4889 124.686C9.87018 124.067 9.5612 123.063 9.5612 121.677V50.8109C9.5612 49.4244 9.87018 48.4216 10.4889 47.8019C11.1068 47.183 12.1071 46.8728 13.4899 46.8728H64.1528C65.5348 46.8728 66.5352 47.183 67.1539 47.8019C67.7718 48.4216 68.0815 49.4244 68.0815 50.8109V63.6039C68.0815 64.9904 67.7718 65.9939 67.1539 66.6129C66.5352 67.2326 65.5348 67.542 64.1528 67.542H34.0174V75.963H55.3067C56.6909 75.963 57.692 76.2732 58.3107 76.8922C58.9286 77.5119 59.2383 78.5146 59.2383 79.9011V91.6018C59.2383 92.9883 58.9286 93.9918 58.3107 94.6108C57.692 95.2305 56.6909 95.54 55.3067 95.54H34.0174V104.945H64.1528C65.5348 104.945 66.5352 105.256 67.1539 105.875C67.7718 106.494 68.0815 107.496 68.0815 108.881V121.677C68.0815 123.063 67.7718 124.067 67.1539 124.686C66.5352 125.305 65.5348 125.615 64.1528 125.615Z" fill="#18A6BC" fill-opacity="0.4"/>
</g>
<path d="M62.1262 123.585H11.4633C10.0805 123.585 9.08019 123.275 8.46224 122.656C7.84357 122.037 7.53459 121.033 7.53459 119.647V48.7809C7.53459 47.3944 7.84357 46.3917 8.46224 45.772C9.08019 45.153 10.0805 44.8428 11.4633 44.8428H62.1262C63.5082 44.8428 64.5086 45.153 65.1273 45.772C65.7452 46.3917 66.0549 47.3944 66.0549 48.7809V61.5739C66.0549 62.9604 65.7452 63.9639 65.1273 64.5829C64.5086 65.2026 63.5082 65.5121 62.1262 65.5121H31.9908V73.933H53.2801C54.6643 73.933 55.6654 74.2432 56.2841 74.8622C56.902 75.4819 57.2117 76.4846 57.2117 77.8711V89.5719C57.2117 90.9584 56.902 91.9618 56.2841 92.5808C55.6654 93.2005 54.6643 93.51 53.2801 93.51H31.9908V102.915H62.1262C63.5082 102.915 64.5086 103.226 65.1273 103.845C65.7452 104.464 66.0549 105.466 66.0549 106.851V119.647C66.0549 121.033 65.7452 122.037 65.1273 122.656C64.5086 123.275 63.5082 123.585 62.1262 123.585Z" fill="#57DDF3"/>
<path d="M82.8951 51.5875C82.1423 52.792 81.3388 53.9275 80.6874 55.1486C80.0408 56.3674 79.5529 57.6728 78.9682 58.9941C78.5237 57.8151 78.0883 56.6411 77.6444 55.4731C76.0641 51.3274 74.498 47.1784 72.8851 43.0485C72.6214 42.3689 72.2105 41.7213 71.7604 41.1417C71.293 40.5365 70.6747 40.6288 70.2612 41.2827C70.1273 41.498 70.0436 41.7521 69.9855 42.0014C69.3286 44.9542 68.8931 47.9523 69.0901 50.9703C69.2102 52.8289 69.6671 54.6802 70.1471 56.4931C71.2708 60.7735 73.7112 64.2204 77.0928 67.0194C78.6221 68.2842 78.5858 68.1762 78.1533 70.0349C77.769 71.6868 77.745 73.3827 77.85 75.0641C78.1688 80.2528 78.8654 85.3763 80.4074 90.36C80.7052 91.3183 80.8467 92.3198 81.1295 93.2816C81.5586 94.7367 82.0226 96.1801 82.5208 97.6128C82.7533 98.2715 83.8361 98.5813 84.4299 98.2173C84.7719 98.0077 84.8447 97.6823 84.8215 97.2942C84.7227 95.5664 84.3774 93.8935 83.8176 92.2606C83.7336 92.0155 83.6216 91.7824 83.5376 91.5374C83.2473 90.6829 83.3677 90.2835 84.1796 89.8589C84.8946 89.4864 82.0712 89.8662 82.8249 89.5709C85.1742 88.6537 81.013 90.6571 83.3403 89.6893C86.9848 88.1775 79.672 91.9056 82.8249 89.5709C84.7608 88.1399 81.5957 90.0185 83.047 88.1091C84.2575 86.5164 80.7034 88.9142 82.9742 87.3424C83.0465 83.7548 80.7687 84.2084 80.7786 84.1777C80.9337 83.8222 81.6687 90.1967 81.3306 89.8495C80.9539 89.462 82.38 90.6891 82.0354 90.9489C79.8694 92.5864 85.6157 90.0399 83.0457 90.7605C80.0899 91.5863 86.1264 90.663 83.2016 91.6001C80.4439 92.4815 85.6894 88.4442 83.5349 90.3632C83.1515 90.7087 83.786 90.5354 83.3949 90.8793C82.8145 91.3911 83.8669 89.1231 83.3403 89.6893C82.8184 90.2531 83.7449 83.0256 83.2096 83.7245C83.1217 83.4824 83.0249 83.2997 82.9887 83.1006C82.7212 81.6354 82.4597 80.1712 82.5393 78.6671C82.603 77.4756 83.0589 76.5405 84.0783 75.9113C85.1518 75.2461 86.2199 74.5723 87.3254 73.964C90.2866 72.3463 93.1996 70.6399 95.7894 68.4797C97.7438 66.8498 99.5122 64.9827 101.29 63.1577C102.715 61.699 104.026 60.1415 105.102 58.3909C105.884 57.113 106.504 55.7622 106.963 54.3436C107.071 54.0066 107.16 53.6522 107.181 53.3017C107.204 52.8651 106.917 52.6586 106.481 52.7731C106.298 52.8228 106.118 52.9128 105.954 53.0093C105.675 53.1701 105.393 53.3337 105.133 53.5303C103.151 55.0099 100.903 56.0272 98.7317 57.1756C96.0422 58.5953 93.3283 59.9951 91.0002 61.9872C89.8997 62.9292 88.8517 63.9503 87.866 65.0205C86.7313 66.2562 85.6622 67.5626 84.6261 68.8829C83.9786 69.7108 83.4474 70.623 82.8662 71.4971C82.864 71.3301 82.8403 71.0864 82.8635 70.8488C83.2278 67.0731 83.6128 63.3008 83.9624 59.5293C84.2648 56.3123 85.6468 53.4916 87.2167 50.7626C88.1797 49.0879 89.6671 47.9308 91.5325 47.3357C92.8596 46.9172 94.2071 47.0274 95.5649 47.2089C98.5977 47.6144 101.635 47.6436 104.644 47.0884C107.118 46.631 109.404 45.6005 111.534 44.299C112.68 43.5981 113.65 42.6043 114.695 41.7414C114.964 41.521 115.18 41.2209 114.946 40.9127C114.8 40.7207 114.471 40.5776 114.221 40.5812C113.217 40.5804 112.221 40.6825 111.217 40.6747C110.023 40.6671 108.827 40.6308 107.637 40.5313C105.122 40.3175 102.6 40.0309 100.094 40.5032C98.7338 40.7635 97.4079 41.1928 96.0711 41.5509C95.7957 41.6252 95.5276 41.7196 95.0687 41.8615C96.2884 40.2745 97.4293 38.885 98.8802 37.7822C101.551 35.7551 104.462 34.1519 107.517 32.7965C108.934 32.168 110.369 31.5576 111.74 30.8333C112.706 30.3236 113.604 29.6735 114.493 29.0286C116.275 27.7366 118.086 26.4608 119.504 24.7546C120.511 23.5373 121.376 22.2038 122.288 20.912C122.415 20.7313 122.487 20.4964 122.519 20.2823C122.584 19.8541 122.345 19.5921 121.903 19.633C121.615 19.6614 121.333 19.7526 121.061 19.8492C117.199 21.1683 113.24 22.0953 109.226 22.8228C104.883 23.614 101.375 25.8484 98.6123 29.2974C97.6037 30.5511 96.5155 31.7382 95.3334 33.1012C95.3414 32.6502 95.3276 32.3765 95.3559 32.1106C95.7315 28.6223 95.874 25.1381 95.4357 21.6371C95.2485 20.1302 95.2862 18.5999 95.1625 17.0805C95.106 16.3416 94.9545 15.6056 94.7672 14.8874C94.6953 14.6157 94.4406 14.2314 94.2197 14.1971C94.0097 14.1622 93.6664 14.4683 93.5128 14.7088C92.4968 16.3052 91.7932 18.0544 91.2234 19.8424C89.7819 24.3515 89.0961 28.9855 89.1912 33.7265C89.2378 35.8742 89.7051 37.8939 90.9307 39.6982C90.9997 39.8031 91.0467 39.9284 91.1663 40.1623C89.5669 41.7483 87.9574 43.3472 86.2762 45.0181C86.2172 44.7203 86.1454 44.4848 86.1224 44.2418C86.0259 43.1438 85.9069 42.0485 85.8622 40.9468C85.7233 37.4447 85.3763 33.9734 84.8803 30.5039C84.5553 28.2273 84.3976 25.9307 84.1576 23.6457C84.1253 23.3244 84.1156 22.993 84.0134 22.6936C83.8428 22.1811 83.4232 22.0565 83.0444 22.447C82.712 22.7881 82.436 23.2062 82.217 23.6284C81.1139 25.7639 80.272 28.0032 79.5801 30.305C77.9607 35.661 78.1851 40.9784 79.8732 46.2748C80.3107 47.6513 81.0571 48.8592 81.8589 50.0419C82.2148 50.5525 82.551 51.0689 82.8951 51.5875Z" fill="#A1F7A1"/>
<path d="M77.956 77.1871L82.5912 79.2961L83.434 79.7179L84.2767 80.1397L84.6981 80.9832L85.1195 82.6704H75.8491L75.4277 81.8268V80.5615L76.2704 78.8743L77.1132 78.0307L77.956 77.1871Z" fill="#A1F7A1"/>
<defs>
<filter id="filter0_d_244_105" x="5.5612" y="46.8728" width="66.5203" height="86.7419" filterUnits="userSpaceOnUse" color-interpolation-filters="sRGB">
<feFlood flood-opacity="0" result="BackgroundImageFix"/>
<feColorMatrix in="SourceAlpha" type="matrix" values="0 0 0 0 0 0 0 0 0 0 0 0 0 0 0 0 0 0 127 0" result="hardAlpha"/>
<feOffset dy="4"/>
<feGaussianBlur stdDeviation="2"/>
<feComposite in2="hardAlpha" operator="out"/>
<feColorMatrix type="matrix" values="0 0 0 0 0 0 0 0 0 0 0 0 0 0 0 0 0 0 0.25 0"/>
<feBlend mode="normal" in2="BackgroundImageFix" result="effect1_dropShadow_244_105"/>
<feBlend mode="normal" in="SourceGraphic" in2="effect1_dropShadow_244_105" result="shape"/>
</filter>
</defs>
</svg>
