<svg width="64" height="64" viewBox="0 0 64 64" fill="none" xmlns="http://www.w3.org/2000/svg">
<g clip-path="url(#clip0_243_38)">
<path d="M57.6 16H36.8C36.8 17.7664 35.2 20.8 32 20.8C28.8 20.8 27.2 17.7664 27.2 16H6.4C2.86574 16 0 18.8657 0 22.4V54.4C0 57.9343 2.86574 60.8 6.4 60.8H57.6C61.1343 60.8 64 57.9343 64 54.4V22.4C64 18.8657 61.1343 16 57.6 16Z" fill="#455A64"/>
<path d="M57.6 56H6.40005C5.51672 56 4.80005 55.2815 4.80005 54.4V22.4C4.80005 21.5185 5.51672 20.8 6.40005 20.8H57.6C58.4834 20.8 59.2 21.5185 59.2 22.4V54.4C59.2 55.2815 58.4834 56 57.6 56Z" fill="white"/>
<path d="M32 6.39999C28.4703 6.39999 25.6 9.26882 25.6 12.8C25.6 16.3312 28.4703 19.2 32 19.2C35.5296 19.2 38.4 16.3312 38.4 12.8C38.4 9.26882 35.5296 6.39999 32 6.39999ZM32 16C30.2336 16 28.8 14.5664 28.8 12.8C28.8 11.0336 30.2336 9.59999 32 9.59999C33.7663 9.59999 35.2 11.0336 35.2 12.8C35.2 14.5664 33.7663 16 32 16Z" fill="#90A4AE"/>
<path d="M35.2 12.8C35.2 14.5664 33.7679 16 32 16C30.2321 16 28.8 14.5664 28.8 12.8H25.6V20.8C25.6 22.5679 27.0321 24 28.8 24H35.2C36.9679 24 38.4 22.5679 38.4 20.8V12.8H35.2Z" fill="#90A4AE"/>
<path d="M32 30.4H54.4V36.8H32V30.4Z" fill="#CFD8DC"/>
<path d="M32 40H54.4V43.2H32V40Z" fill="#CFD8DC"/>
<path d="M32 46.4H44.8V49.6H32V46.4Z" fill="#CFD8DC"/>
<g clip-path="url(#clip1_243_38)">
<path d="M8.06702 36.3616H6.0482L5.66992 35.7317L8.3522 34.1919L16.0515 32.3733L19.6421 32.2328L28.6271 33.7812L30.5362 34.9262L30.2729 35.5677L8.06702 36.3616Z" fill="#D87F4A"/>
<path d="M28.8901 35.4787L28.8566 35.7877L28.7651 36.6439L27.9684 44.0697H8.35176L7.79616 38.714L7.79487 38.7127V38.7114L7.63246 37.1447L7.56927 36.5293L7.49585 35.8251L28.8901 35.4787Z" fill="#EDE4BE"/>
<path d="M22.7866 39.4431H22.6016V42.3478H24.1705L24.3634 42.2127L22.7866 39.4431Z" fill="#562E1D"/>
<path d="M24.7443 39.5381L24.3635 42.2127H22.7866V39.4431L24.7443 39.5381Z" fill="#F5FAFF"/>
<path d="M24.3911 39.8271L24.1241 41.9412H23.0177V39.7519L24.3911 39.8271Z" fill="#562E1D"/>
<path d="M23.7655 39.6603L23.7045 40.6785L24.3912 40.7841L24.3228 41.1129L23.7045 40.9636V42.0768H23.3983V41.0316H22.9227V40.6242L23.4937 40.6513L23.4664 39.6603H23.7655Z" fill="#F5FAFF"/>
<path d="M25.74 39.4431H25.5549V42.3478H27.1236L27.3169 42.2127L25.74 39.4431Z" fill="#562E1D"/>
<path d="M27.6974 39.5381L27.3169 42.2127H25.74V39.4431L27.6974 39.5381Z" fill="#F5FAFF"/>
<path d="M27.3444 39.8271L27.0773 41.9412H25.9708V39.7519L27.3444 39.8271Z" fill="#562E1D"/>
<path d="M26.7186 39.6603L26.6578 40.6785L27.3444 40.7841L27.2762 41.1129L26.6578 40.9636V42.0768H26.3516V41.0316H25.8757V40.6242L26.4467 40.6513L26.4197 39.6603H26.7186Z" fill="#F5FAFF"/>
<path d="M13.3775 39.4431H13.5625V42.3478H11.9936L11.8005 42.2127L13.3775 39.4431Z" fill="#562E1D"/>
<path d="M11.4197 39.5381L11.8005 42.2127H13.3774V39.4431L11.4197 39.5381Z" fill="#F5FAFF"/>
<path d="M11.7729 39.8271L12.0399 41.9412H13.1463V39.7519L11.7729 39.8271Z" fill="#562E1D"/>
<path d="M12.3986 39.6603L12.4596 40.6785L11.7729 40.7841L11.8412 41.1129L12.4596 40.9636V42.0768H12.7657V41.0316H13.2417V40.6242L12.6704 40.6513L12.6977 39.6603H12.3986Z" fill="#F5FAFF"/>
<path d="M10.4243 39.4431H10.6093V42.3478H9.04041L8.84717 42.2127L10.4243 39.4431Z" fill="#562E1D"/>
<path d="M8.46655 39.5381L8.84713 42.2127H10.4243V39.4431L8.46655 39.5381Z" fill="#F5FAFF"/>
<path d="M8.81982 39.8271L9.08678 41.9412H10.1932V39.7519L8.81982 39.8271Z" fill="#562E1D"/>
<path d="M9.44545 39.6603L9.50648 40.6785L8.81982 40.7841L8.88784 41.1129L9.50648 40.9636V42.0768H9.81234V41.0316H10.2882V40.6242L9.7173 40.6513L9.74432 39.6603H9.44545Z" fill="#F5FAFF"/>
<path d="M27.9778 44.0433L27.9273 44.3714L8.40119 44.3562L8.35327 44.0433H27.9778Z" fill="#EDE4BE"/>
<path d="M20.4452 38.7812L20.2076 44.5248L19.8428 44.5178L16.5704 44.4468L16.219 44.4398L15.6356 39.4032L20.4452 38.7812Z" fill="#7C482E"/>
<path d="M20.0881 39.2563L19.8428 44.5178L16.5704 44.4468L16.0613 39.7841L20.0881 39.2563Z" fill="#562E1D"/>
<path d="M19.917 39.5569L19.8922 40.0342L19.86 40.617L19.7593 42.494L19.6511 44.5178L18.2734 44.4857L18.0393 44.481L17.6632 44.472L16.8289 44.4537L16.7719 44.4514L16.7224 43.997L16.5781 42.6846L16.2911 40.0548L18.0393 39.8139L18.2734 39.7817L18.7122 39.722L19.917 39.5569Z" fill="#7C482E"/>
<path d="M18.2733 39.6371V44.4857L18.0393 44.481V39.7678L18.2733 39.6371Z" fill="#562E1D"/>
<path d="M13.0917 34.7672L17.7655 30.9871L22.917 34.2742L13.0917 34.7672Z" fill="#D87F4A"/>
<path d="M6.49084 35.4906L6.97907 36.9334L29.3391 36.2021L29.792 34.6249L6.49084 35.4906Z" fill="#562E1D"/>
<path d="M14.009 35.9358L14.4205 44.7855H15.0129L14.9307 35.8753L14.009 35.9358Z" fill="#D87F4A"/>
<path d="M14.598 35.991L14.7248 44.8073L14.84 44.7746L14.7743 35.916L14.598 35.991Z" fill="#7C482E"/>
<path d="M14.397 36.1625L14.5979 44.7855H14.4974L14.1901 35.9998L14.397 36.1625Z" fill="#7C482E"/>
<path d="M21.304 35.6568L20.9254 44.567H21.4848L22.2584 35.5659L21.304 35.6568Z" fill="#D87F4A"/>
<path d="M21.5918 35.6568L21.0242 44.5891H21.1229L21.7482 35.6568H21.5918Z" fill="#7C482E"/>
<path d="M21.8634 35.6975L22.061 35.6568L21.3862 44.5891H21.238L21.8634 35.6975Z" fill="#7C482E"/>
<path d="M12.5488 34.6249L12.664 35.0302L23.1142 34.5372L23.2623 34.0439L12.5488 34.6249Z" fill="#562E1D"/>
<path d="M12.9023 34.8504L13.2502 36.1547L22.5818 35.859L22.917 34.3992L12.9023 34.8504Z" fill="#7C482E"/>
<path d="M8.40111 44.356L8.17847 44.7909H28.2156L27.927 44.3709L8.40111 44.356Z" fill="#562E1D"/>
<path d="M29.3292 45.3606H28.649L27.5264 45.7193L8.83246 45.6608L6.72839 45.3405L8.1502 44.7708L28.2156 44.7909L29.3292 45.3606Z" fill="#EDE4BE"/>
<path d="M29.3292 45.3606L28.8567 45.9141L7.49596 45.8116L6.72839 45.3405L29.3292 45.3606Z" fill="#562E1D"/>
<path d="M8.6039 45.1761L8.15869 42.0768L8.42946 41.9412L8.88454 45.1761H8.6039Z" fill="#562E1D"/>
<path d="M11.6012 45.2026L11.922 41.7107H12.2196L11.8251 45.2026H11.6012Z" fill="#562E1D"/>
<path d="M7.44678 42.39L12.7348 42.0949L13.252 38.5021L6.86035 38.4995L7.44678 42.39Z" fill="#D87F4A"/>
<path d="M13.0502 38.6909L12.9343 39.4969L12.5965 41.8411V41.8437L12.5875 41.9067L12.4741 41.9134L7.69649 42.1733L7.68878 42.1244L7.20026 38.8827L7.19508 38.8505L7.17188 38.6909H13.0502Z" fill="#F5FAFF"/>
<path d="M13.059 38.6703L12.5968 41.9456L12.4741 41.9134L12.818 38.8518L7.19322 38.8937L7.15662 38.6667L13.059 38.6703Z" fill="#562E1D"/>
<path d="M12.5964 41.8412V41.8437L12.5874 41.9068L12.5967 41.9454L7.6811 42.2019L7.21154 38.9964L7.19324 38.8937C7.21384 38.851 7.22991 38.8065 7.24137 38.7604L7.74415 42.0768L12.5964 41.8412Z" fill="#562E1D"/>
<path d="M10.6382 40.134C10.6403 40.1598 10.6408 40.1856 10.6398 40.2113C10.6387 40.2371 10.6362 40.2628 10.632 40.2883C10.6279 40.3138 10.6222 40.3389 10.6151 40.3637C10.608 40.3885 10.5993 40.4128 10.5893 40.4366C10.5792 40.4604 10.5678 40.4835 10.5549 40.5059C10.5421 40.5282 10.528 40.5498 10.5126 40.5706C10.4972 40.5913 10.4805 40.611 10.4627 40.6297C10.4449 40.6484 10.4261 40.666 10.4062 40.6825C10.3155 40.7513 10.2172 40.8062 10.111 40.8472C10.1081 40.8483 10.1051 40.8488 10.102 40.8486H10.0917C9.99395 40.8142 9.90201 40.7682 9.81577 40.7108C9.75604 40.6742 9.70574 40.6274 9.66496 40.5705C9.60545 40.4867 9.56805 40.394 9.55278 40.2924C9.54391 40.2469 9.53916 40.201 9.53858 40.1547L9.53736 40.0813V40.0633L9.52576 39.4517L10.0659 39.4414H10.0852L10.3495 39.4363L10.6253 39.4311V39.4621L10.6369 40.062L10.6382 40.134Z" fill="#D87F4A"/>
<path d="M10.6254 39.4311V39.4621L10.2644 39.8805V39.8817L10.1136 40.0529L10.0981 40.071L10.0968 40.0722L10.0775 40.0941L9.96276 40.228L9.66497 40.5705C9.60545 40.4867 9.56806 40.394 9.55286 40.2924L9.75266 40.0774L9.76937 40.0594L9.90346 39.9152L9.97047 39.8431L10.0711 39.7349L10.0904 39.7143L10.3495 39.4363L10.6254 39.4311Z" fill="#F5FAFF" fill-opacity="0.498"/>
<path d="M10.2674 40.0679C10.2687 40.0849 10.2681 40.1017 10.2654 40.1185C10.2628 40.1353 10.2581 40.1515 10.2514 40.1672C10.2449 40.1828 10.2365 40.1975 10.2263 40.2111C10.2161 40.2247 10.2045 40.237 10.1914 40.2478C10.162 40.2712 10.1295 40.2894 10.0943 40.3024C10.0597 40.2922 10.0275 40.2771 9.99767 40.257C9.9829 40.2469 9.96965 40.2352 9.9579 40.2217C9.94616 40.2083 9.93629 40.1936 9.92836 40.1776C9.92036 40.1616 9.9146 40.1449 9.911 40.1274C9.90732 40.1099 9.90595 40.0923 9.90689 40.0744L9.90271 39.844L10.2632 39.8374L10.2674 40.0679Z" fill="#562E1D"/>
<path d="M10.0858 39.4413L10.1114 40.8475C10.1081 40.8483 10.1047 40.8488 10.1013 40.8489C10.098 40.8489 10.0946 40.8486 10.0913 40.848L10.0657 39.4416L10.0858 39.4413Z" fill="#562E1D"/>
<path d="M9.53748 40.0637L10.6362 40.0438L10.6366 40.0615L9.53776 40.0815L9.53748 40.0637Z" fill="#562E1D"/>
<path d="M8.16626 41.2536L12.283 41.029L12.2747 41.1412L8.19897 41.3576L8.16626 41.2536Z" fill="#562E1D"/>
<path d="M8.28101 41.4837L8.31401 41.6152L12.2194 41.3918V41.2701L8.28101 41.4837Z" fill="#562E1D"/>
</g>
</g>
<defs>
<clipPath id="clip0_243_38">
<rect width="64" height="64" fill="white"/>
</clipPath>
<clipPath id="clip1_243_38">
<rect width="26.5613" height="14.9249" fill="white" transform="translate(4.80627 30.9881)"/>
</clipPath>
</defs>
</svg>
