<svg width="64" height="64" viewBox="0 0 64 64" fill="none" xmlns="http://www.w3.org/2000/svg">
<path d="M35.1386 14.0281C35.146 14.0204 35.1509 14.013 35.1559 14.0031C35.1509 14.013 35.146 14.0204 35.1386 14.0281C35.0642 14.142 34.9874 14.2562 34.9056 14.3701C34.8858 14.3948 34.8685 14.4198 34.8488 14.4444C34.7769 14.5435 34.7 14.6454 34.6207 14.7469C34.6083 14.7642 34.596 14.7793 34.5812 14.7966C34.4945 14.9056 34.4053 15.0173 34.3136 15.1312C34.2864 15.1636 34.2614 15.1932 34.2343 15.2256C34.1451 15.3346 34.0559 15.4438 33.9617 15.5528C32.9161 16.7901 32.5346 17.8364 32.6065 19.0512C32.6188 19.3886 32.3512 19.6685 32.0117 19.6685H31.3281C31.0185 19.6685 30.7583 19.4281 30.7358 19.1182L30.7309 19.0512C30.5874 17.767 31.0157 16.3611 32.2028 14.9355C33.2728 13.6735 33.8676 12.746 33.8676 11.6775C33.8676 10.8469 33.5108 10.2046 32.8046 9.875C32.7327 9.84259 32.6562 9.81296 32.5769 9.7858C32.5519 9.77562 32.5247 9.77068 32.5 9.76327C32.438 9.74352 32.3759 9.72623 32.3117 9.71111C32.2793 9.7037 32.2472 9.69877 32.2151 9.69136C32.1506 9.67901 32.0812 9.66914 32.0117 9.66173C31.9821 9.65679 31.9525 9.65185 31.9225 9.64938C31.821 9.63951 31.717 9.63426 31.608 9.63179C30.9837 9.63179 30.3074 9.78302 29.7574 10.041C29.7472 10.046 29.7349 10.0485 29.725 10.0534C29.7349 10.0485 29.7472 10.046 29.7574 10.041C29.7201 10.0583 29.6806 10.0731 29.6407 10.083C29.6407 10.083 29.6407 10.083 29.6383 10.083C29.6333 10.083 29.6259 10.0858 29.6185 10.0858C29.6136 10.0858 29.6087 10.0858 29.6037 10.0883C29.5766 10.0907 29.5491 10.0957 29.5219 10.0957C29.5195 10.0957 29.5195 10.0957 29.517 10.0957C29.517 10.0957 29.5145 10.0957 29.512 10.0957C29.4898 10.0957 29.4698 10.0932 29.4475 10.0907C29.4624 10.0932 29.4775 10.0932 29.4948 10.0932C29.4648 10.0932 29.4327 10.0907 29.4031 10.0858H29.4056H29.4031C29.3855 10.083 29.3657 10.0756 29.3485 10.0707C29.3312 10.0633 29.3114 10.0608 29.2938 10.0534C29.3114 10.0608 29.3312 10.0633 29.3485 10.0707C29.1775 10.0188 29.029 9.89228 28.9596 9.71111L28.8133 9.33179C28.7068 9.05185 28.8232 8.73179 29.0883 8.59568C29.8837 8.18148 30.9935 7.91852 32.0367 7.91852C33.7312 7.91852 34.8488 8.56821 35.4556 9.49321C35.4506 9.48827 35.4482 9.48302 35.4457 9.47809C35.4482 9.48302 35.4531 9.48827 35.4556 9.49321C35.4756 9.52284 35.4904 9.55247 35.5102 9.58241C35.5423 9.63673 35.5747 9.69136 35.6043 9.74846C35.6241 9.7858 35.6417 9.82284 35.6614 9.85988C35.6886 9.91451 35.7108 9.9716 35.7358 10.0287C35.7506 10.0633 35.7654 10.0957 35.7778 10.1327C35.8099 10.2194 35.8398 10.309 35.867 10.3981C35.8744 10.4302 35.8818 10.4651 35.8917 10.4972C35.9065 10.5617 35.9241 10.6287 35.9364 10.6957C35.9438 10.7327 35.9488 10.7676 35.9562 10.8046C35.9611 10.8444 35.9685 10.8815 35.9735 10.9213C35.9685 10.8963 35.9636 10.8716 35.9611 10.8444C35.9685 10.8963 35.9759 10.9509 35.9809 11.0031C35.9784 10.9858 35.9784 10.9682 35.9759 10.9509C35.9784 10.9707 35.9809 10.9907 35.9833 11.013C35.9858 11.0451 35.9908 11.0775 35.9932 11.1096C35.9932 11.1272 35.9957 11.1469 35.9982 11.1642C35.9957 11.1519 35.9932 11.137 35.9932 11.1244C36.0009 11.2213 36.0059 11.3179 36.0059 11.4145C36.0059 12.4065 35.6664 13.2296 35.1386 14.0281ZM32.9037 23.7596C32.8988 23.7645 32.8963 23.7719 32.8914 23.7772C32.8716 23.8167 32.8494 23.8515 32.8244 23.8886C32.817 23.8985 32.8096 23.9108 32.8022 23.9231C32.7701 23.9654 32.7352 24.0077 32.7006 24.0472C32.7006 24.0472 32.7006 24.0472 32.6982 24.0472C32.6957 24.0522 32.6908 24.0546 32.6883 24.0571C32.6611 24.087 32.6312 24.1167 32.6016 24.1438C32.5744 24.1639 32.5494 24.1836 32.5222 24.2034C32.5124 24.2108 32.5025 24.2182 32.4926 24.2259C32.4602 24.2506 32.4256 24.2704 32.3886 24.2901C32.3837 24.2926 32.3812 24.2951 32.3759 24.2978C32.3389 24.3201 32.2994 24.3373 32.2596 24.3546C32.2546 24.3571 32.2522 24.3596 32.2497 24.3596C32.2102 24.3772 32.1679 24.3895 32.1284 24.4043C32.1235 24.4043 32.1185 24.4068 32.1136 24.4093C32.096 24.4142 32.0762 24.4167 32.059 24.4216C32.0614 24.4216 32.0614 24.4216 32.0639 24.4191C32.0565 24.4216 32.0491 24.4241 32.0417 24.4265C32.0441 24.4241 32.0491 24.4241 32.0516 24.4241C32.0318 24.429 32.0117 24.434 31.992 24.4389C31.9846 24.4389 31.9772 24.4414 31.9673 24.4438C31.9401 24.4491 31.9127 24.4515 31.883 24.4565C31.8855 24.4565 31.8855 24.4565 31.888 24.4565C31.8732 24.4565 31.8608 24.459 31.8485 24.4614H31.846C31.8361 24.4614 31.8259 24.4639 31.8161 24.4664C31.7642 24.4713 31.7096 24.4738 31.6577 24.4738C30.825 24.4738 30.2553 23.8315 30.2553 22.9985C30.2553 22.1182 30.85 21.5009 31.6799 21.5009C32.5124 21.5009 33.0821 22.1182 33.0821 22.9985C33.0821 23.2861 33.0154 23.5512 32.8938 23.7744C32.8963 23.7694 32.9012 23.7645 32.9037 23.7596ZM31.4892 3.21018C26.1772 3.45555 21.8043 7.80957 21.5293 13.1204C21.3756 16.1031 22.4435 18.9123 24.5321 21.0299C26.4275 22.9512 27.6488 25.4358 28.0228 28.0988H35.9512C36.0975 27.0599 36.3775 26.0407 36.7861 25.059C37.413 23.5488 38.3173 22.1802 39.4769 20.9901C41.3994 19.0216 42.455 16.4256 42.455 13.6759C42.455 10.7849 41.3053 8.09475 39.2142 6.09876C37.1256 4.10278 34.3806 3.07623 31.4892 3.21018Z" fill="#79D3EC"/>
<path d="M35.6515 33.1914C35.6314 33.1914 35.6141 33.1914 35.5969 33.1914H28.9C28.8256 33.1914 28.7512 33.2012 28.6821 33.2185C28.5358 33.2583 28.4071 33.3327 28.3006 33.4392C28.1395 33.5978 28.0527 33.8111 28.0527 34.0392C28.0527 34.5056 28.4317 34.8873 28.9 34.8873H35.6416C35.8521 34.875 36.0478 34.7855 36.1966 34.6367C36.3549 34.4781 36.4441 34.2648 36.4441 34.0392C36.4441 33.5904 36.095 33.2185 35.6515 33.1914Z" fill="#91CB91"/>
<path d="M29.6038 10.0883C29.6087 10.0858 29.6136 10.0858 29.6186 10.0858C29.6038 10.0883 29.5889 10.0883 29.5717 10.0907C29.584 10.0883 29.5939 10.0883 29.6038 10.0883Z" fill="#ED1D24"/>
<path d="M36.6599 29.7994C36.6426 29.7969 36.6225 29.7969 36.6052 29.7969H27.7083C27.6339 29.7969 27.5595 29.8071 27.4879 29.8244C27.3441 29.8639 27.2154 29.9383 27.1086 30.0451C26.9478 30.2037 26.8611 30.417 26.8611 30.6451C26.8611 31.1111 27.2401 31.4929 27.7083 31.4929H36.6052C36.8308 31.4929 37.0438 31.4037 37.2049 31.2426C37.3636 31.084 37.4528 30.8707 37.4528 30.6451C37.4528 30.1963 37.1034 29.8244 36.6599 29.7994Z" fill="#91CB91"/>
<path d="M32.3043 37.8229C33.221 37.8229 34.0435 37.3296 34.4994 36.5833H30.1064C30.5623 37.3296 31.3876 37.8229 32.3043 37.8229Z" fill="#CCD9E8"/>
<path d="M29.619 10.0858C29.6139 10.0858 29.6089 10.0858 29.6038 10.0883C29.6089 10.0858 29.6139 10.0858 29.619 10.0858Z" fill="#342F90"/>
<path d="M35.9982 11.1642C35.9957 11.1469 35.9932 11.1272 35.9932 11.1096C35.9907 11.0775 35.9858 11.0451 35.9833 11.013C35.9809 10.9907 35.9784 10.9707 35.9759 10.9509C35.9784 10.9682 35.9784 10.9858 35.9809 11.0031C35.9759 10.9509 35.9685 10.8963 35.9611 10.8444C35.9636 10.8716 35.9685 10.8963 35.9735 10.9213C35.9685 10.8815 35.9611 10.8444 35.9562 10.8046C35.9488 10.7676 35.9438 10.7327 35.9364 10.6957C35.9241 10.6287 35.9065 10.5617 35.8917 10.4972C35.8818 10.4651 35.8744 10.4302 35.867 10.3981C35.8398 10.309 35.8099 10.2194 35.7778 10.1327C35.7654 10.0957 35.7506 10.0633 35.7358 10.0287C35.7108 9.9716 35.6886 9.91451 35.6614 9.85988C35.6417 9.82284 35.6241 9.7858 35.6043 9.74846C35.5747 9.69136 35.5423 9.63673 35.5102 9.58241C35.4904 9.55247 35.4756 9.52284 35.4556 9.49321C35.4531 9.48827 35.4482 9.48302 35.4457 9.47809C35.4482 9.48302 35.4506 9.48827 35.4556 9.49321C34.8488 8.56821 33.7312 7.91852 32.0367 7.91852C30.9935 7.91852 29.8837 8.18148 29.0883 8.59568C28.8232 8.73179 28.7068 9.05185 28.8133 9.33179L28.9596 9.71111C29.029 9.89228 29.1775 10.0188 29.3485 10.0707C29.3658 10.0756 29.3855 10.083 29.4031 10.0858C29.4327 10.0907 29.4648 10.0932 29.4948 10.0932C29.4775 10.0932 29.4624 10.0932 29.4475 10.0907C29.4698 10.0932 29.4898 10.0957 29.512 10.0957C29.5145 10.0957 29.517 10.0957 29.517 10.0957C29.5195 10.0957 29.5195 10.0957 29.5219 10.0957C29.5491 10.0957 29.5766 10.0907 29.6037 10.0883C29.5938 10.0883 29.584 10.0883 29.5716 10.0907C29.5889 10.0883 29.6037 10.0883 29.6185 10.0858C29.6259 10.0858 29.6333 10.083 29.6383 10.083C29.6408 10.083 29.6408 10.083 29.6408 10.083C29.6806 10.0731 29.7201 10.0583 29.7574 10.041C30.3074 9.78302 30.9837 9.63179 31.608 9.63179C31.717 9.63426 31.821 9.63951 31.9225 9.64938C31.9525 9.65185 31.9821 9.65679 32.0117 9.66173C32.0812 9.66914 32.1506 9.67901 32.2151 9.69136C32.2472 9.69876 32.2793 9.7037 32.3117 9.71111C32.3759 9.72623 32.438 9.74352 32.5 9.76327C32.5247 9.77068 32.5519 9.77562 32.5769 9.7858C32.6562 9.81296 32.7327 9.84259 32.8046 9.875C33.5108 10.2046 33.8676 10.8469 33.8676 11.6775C33.8676 12.746 33.2728 13.6735 32.2028 14.9355C31.0158 16.3611 30.5874 17.767 30.7309 19.0512L30.7358 19.1182C30.7583 19.4281 31.0185 19.6685 31.3281 19.6685H32.0117C32.3512 19.6685 32.6188 19.3886 32.6065 19.0512C32.5346 17.8364 32.9161 16.7901 33.9617 15.5528C34.0559 15.4438 34.1451 15.3346 34.2343 15.2256C34.2614 15.1932 34.2864 15.1636 34.3136 15.1312C34.4053 15.0173 34.4945 14.9056 34.5812 14.7966C34.596 14.7793 34.6083 14.7642 34.6207 14.7469C34.7 14.6454 34.7769 14.5435 34.8488 14.4444C34.8685 14.4198 34.8858 14.3948 34.9056 14.3701C34.9874 14.2562 35.0642 14.142 35.1386 14.0281C35.146 14.0204 35.1509 14.013 35.1559 14.0031C35.1509 14.013 35.146 14.0204 35.1386 14.0281C35.6664 13.2296 36.0059 12.4065 36.0059 11.4145C36.0059 11.3179 36.0009 11.2213 35.9932 11.1244C35.9932 11.137 35.9957 11.1519 35.9982 11.1642Z" fill="#342F90"/>
<path d="M31.6799 21.5009C30.85 21.5009 30.2552 22.1182 30.2552 22.9985C30.2552 23.8315 30.825 24.4738 31.6577 24.4738C31.7096 24.4738 31.7642 24.4713 31.816 24.4663C31.8259 24.4639 31.8361 24.4614 31.846 24.4614H31.8484C31.8608 24.4589 31.8731 24.4565 31.888 24.4565C31.8855 24.4565 31.8855 24.4565 31.883 24.4565C31.9126 24.4515 31.9401 24.4491 31.9673 24.4438C31.9772 24.4413 31.9846 24.4389 31.992 24.4389C32.0117 24.4339 32.0318 24.429 32.0515 24.4241C32.0491 24.4241 32.0441 24.4241 32.0417 24.4265C32.0491 24.4241 32.0565 24.4216 32.0639 24.4191C32.0614 24.4216 32.0614 24.4216 32.0589 24.4216C32.0762 24.4167 32.096 24.4142 32.1136 24.4093C32.1185 24.4068 32.1234 24.4043 32.1284 24.4043C32.1679 24.3895 32.2102 24.3772 32.2497 24.3596C32.2521 24.3596 32.2546 24.3571 32.2596 24.3546C32.2994 24.3373 32.3389 24.3201 32.3759 24.2978C32.3812 24.2951 32.3836 24.2926 32.3886 24.2901C32.4256 24.2704 32.4602 24.2506 32.4926 24.2259C32.5025 24.2182 32.5123 24.2108 32.5222 24.2034C32.5494 24.1836 32.5744 24.1639 32.6015 24.1438C32.6312 24.1167 32.6611 24.087 32.6883 24.0571C32.6907 24.0546 32.6957 24.0522 32.6981 24.0472C32.7006 24.0472 32.7006 24.0472 32.7006 24.0472C32.7352 24.0077 32.77 23.9654 32.8021 23.9231C32.8096 23.9108 32.817 23.8984 32.8244 23.8886C32.8494 23.8515 32.8716 23.8167 32.8913 23.7772C32.8963 23.7719 32.8988 23.7645 32.9037 23.7596C32.9012 23.7645 32.8963 23.7694 32.8938 23.7744C33.0154 23.5512 33.0821 23.2861 33.0821 22.9985C33.0821 22.1182 32.5123 21.5009 31.6799 21.5009Z" fill="#342F90"/>
<path d="M39.4769 20.9901C38.3173 22.1802 37.413 23.5488 36.7861 25.0589C36.3775 26.0407 36.0976 27.0599 35.9513 28.0988H28.0229C27.6488 25.4358 26.4275 22.9512 24.5321 21.0299C22.4435 18.9123 21.3756 16.1031 21.5294 13.1204C21.8044 7.80957 26.1772 3.45556 31.4892 3.21019C34.3806 3.07623 37.1256 4.10278 39.2142 6.09876C41.3053 8.09475 42.455 10.7849 42.455 13.6759C42.455 16.4256 41.3994 19.0216 39.4769 20.9901ZM37.205 31.2426C37.0439 31.4037 36.8309 31.4929 36.6053 31.4929H27.7084C27.2402 31.4929 26.8611 31.1111 26.8611 30.6451C26.8611 30.417 26.9479 30.2037 27.1087 30.045C27.2155 29.9383 27.3442 29.8639 27.488 29.8244C27.5596 29.8071 27.634 29.7969 27.7084 29.7969H36.6053C36.6226 29.7969 36.6426 29.7969 36.6599 29.7994C37.1034 29.8244 37.4528 30.1963 37.4528 30.6451C37.4528 30.8707 37.3636 31.0839 37.205 31.2426ZM36.1966 34.6367C36.0479 34.7855 35.8522 34.875 35.6417 34.8873H28.9C28.4318 34.8873 28.0528 34.5055 28.0528 34.0392C28.0528 33.8111 28.1395 33.5978 28.3006 33.4392C28.4071 33.3327 28.5358 33.2583 28.6821 33.2185C28.7513 33.2012 28.8256 33.1913 28.9 33.1913H35.5969C35.6142 33.1913 35.6315 33.1913 35.6516 33.1913C36.0951 33.2185 36.4442 33.5904 36.4442 34.0392C36.4442 34.2648 36.355 34.4781 36.1966 34.6367ZM32.3044 37.8228C31.3877 37.8228 30.5624 37.3296 30.1065 36.5833H34.4994C34.0435 37.3296 33.221 37.8228 32.3044 37.8228ZM31.4124 1.5142C25.2383 1.79938 20.1544 6.85988 19.8346 13.0336C19.6587 16.4478 20.9297 19.7975 23.3232 22.2225C24.9979 23.9207 26.0633 26.1275 26.3605 28.4904C26.1994 28.5895 26.0485 28.7062 25.9121 28.8426C25.429 29.321 25.1639 29.9608 25.1639 30.6451C25.1639 31.654 25.7559 32.5244 26.6084 32.9361C26.4448 33.2756 26.3556 33.65 26.3556 34.0392C26.3556 35.2071 27.1485 36.1938 28.2238 36.4889C28.7614 38.2543 30.4139 39.5188 32.3044 39.5188C34.2071 39.5188 35.867 38.2395 36.3923 36.4568C36.7689 36.3327 37.1108 36.1219 37.3957 35.8395C37.8763 35.3583 38.1414 34.7188 38.1414 34.0392C38.1414 33.6154 38.0374 33.216 37.8516 32.8617C38.0522 32.75 38.238 32.6111 38.404 32.445C38.8846 31.9642 39.1497 31.3244 39.1497 30.6451C39.1497 29.6111 38.5303 28.716 37.6337 28.3194C37.7624 27.4293 38.0028 26.554 38.3519 25.7083C38.8969 24.3994 39.6824 23.2117 40.6908 22.1753C42.9232 19.8892 44.1519 16.8719 44.1519 13.6759C44.1519 10.3164 42.8142 7.18981 40.3861 4.86883C37.9605 2.55062 34.7695 1.36049 31.4124 1.5142Z" fill="#342F90"/>
<path fill-rule="evenodd" clip-rule="evenodd" d="M47.3287 43.1278C48.1414 42.6444 48.8695 42.0765 49.6149 41.5256C53.2627 40.8148 57.7973 41.1068 61.1213 40.9917C61.0201 41.1948 61.2362 41.1642 61.2738 41.2207C61.4442 41.4775 61.2507 41.7485 61.2738 42.1358C61.3454 43.3201 61.9883 44.717 62.1121 45.6448C62.2247 46.4883 61.6395 46.7164 61.1213 47.3988C60.7494 47.8898 60.5436 48.4685 60.2831 48.7719C59.4466 49.7478 58.384 50.5679 57.6926 51.3654C58.9723 51.5151 60.3704 51.2164 61.8074 50.9843C62.3007 51.9006 61.9084 53.4759 61.6547 55.0269C61.5287 55.8003 61.5229 56.6157 61.3503 56.9336C61.1874 57.2349 60.8108 57.3401 60.5115 57.6201C59.6547 58.4235 59.1741 59.771 57.9973 59.9855C55.7994 59.4565 52.9429 59.1056 49.6908 59.2988C49.2065 59.3278 48.7007 59.4775 48.2433 59.5272C47.3516 60.4145 46.55 61.392 45.5763 62.1972C40.2936 61.9383 37.0769 62.5806 32.3936 62.6546C32.3408 62.0586 32.3939 61.2716 32.3173 60.5191C30.9303 61.0781 29.2868 61.688 27.5164 61.7395C24.6482 61.8232 22.5034 59.9821 21.0392 58.383C20.5889 57.6136 20.2112 56.771 19.5911 56.1713C19.3497 57.1624 20.2075 57.4874 20.3531 58.3068C20.4244 58.7065 20.3507 59.7296 20.1247 60.3664C19.7284 61.4827 18.2294 62.1315 17.0766 62.8074C16.3615 63.2269 15.417 64.0167 14.5621 63.7994C13.8562 63.6191 13.5436 62.3182 12.8852 62.1972C12.4257 62.1127 11.6016 62.6278 11.1328 62.7309C8.69572 63.2679 6.52813 63.6478 4.96023 61.587C3.66424 59.8836 1.87288 56.3201 1.75992 53.425C1.67751 51.3235 2.20221 47.0065 3.5127 45.4917C4.75004 44.0614 6.73708 43.717 8.00838 42.0599C9.6769 41.5846 10.5399 41.154 12.3522 41.2969C15.197 41.521 17.4161 42.2765 19.4389 43.9667C19.7068 44.1907 20.2266 44.7235 20.2772 44.7296C20.7213 44.7787 21.584 43.6809 22.0297 43.3565C22.5105 43.0059 23.2287 42.5139 23.63 42.4407C24.2966 42.3204 24.9942 42.5556 25.5349 42.5935C26.0936 42.6327 26.6389 42.6522 27.3636 42.8225C27.5895 43.1506 27.6781 43.5975 27.5926 44.0429C28.1831 43.8963 28.4713 43.4481 28.888 43.1278C29.6787 42.7265 30.4176 42.779 31.6315 42.7463C32.288 42.7284 32.4627 42.7444 33.155 42.8985C33.3084 42.9327 33.7639 43.0515 33.7645 43.0512C34.2127 42.9151 34.6034 42.0654 34.8315 41.7543C35.1929 41.262 35.5522 40.9259 35.8223 40.4577C39.0105 39.7194 43.1571 39.8478 46.4142 40.1528C46.8371 41.0852 47.321 42.1994 47.3287 43.1278ZM40.8519 40.6867C39.7075 40.7046 37.7686 40.5657 36.9652 40.9154C35.8466 41.4025 36.3155 42.7525 36.3556 44.1951C37.3152 44.2907 39.0534 43.6809 40.1658 43.8904C40.4473 47.9762 40.9485 52.0012 40.9281 56.3235C40.5084 56.0648 40.0284 56.1537 39.4797 56.0185C38.6099 55.8046 37.5544 55.1031 36.8889 55.4083C36.359 55.6519 36.4004 56.679 36.2794 57.3157C36.1291 58.1065 35.9386 58.7488 35.9744 59.5272C40.3522 59.0821 43.7485 59.4914 47.7858 58.9935C47.7408 57.8015 47.596 56.3404 47.3287 55.4083C46.155 55.1753 44.9757 55.5157 44.0519 55.5611C43.9389 52.0645 43.3587 47.2864 42.9093 43.9667C43.8537 43.3238 45.6726 43.6389 46.567 43.1278C46.4933 42.0568 46.0041 41.4025 45.4997 40.763C44.2602 40.7034 42.551 40.6599 40.8519 40.6867ZM50.072 42.2886C50.2513 43.6759 50.2204 45.0787 50.5294 46.1784C52.1019 46.0941 53.9562 45.7361 55.863 45.5682C56.2738 45.5321 56.8649 45.5583 57.159 45.7972C56.2923 47.8235 53.9423 49.1315 52.2059 50.4503C51.8858 50.6932 51.2976 51.3003 51.2155 51.671C50.8936 53.1105 51.8858 55.1025 51.5957 56.7818C54.1954 57.0599 57.6417 56.6124 60.5115 56.5525C60.9522 55.142 61.2516 53.1873 61.1976 51.8994C60.2565 52.1074 58.7507 52.0756 57.5405 52.1284C57.1019 52.1469 56.6096 52.3593 56.4732 51.8994C56.3954 51.3889 56.8439 51.4065 56.7019 50.8318C58.4448 49.5003 59.9365 47.9167 61.2738 46.1784C61.0257 44.8056 60.5716 43.2679 60.4358 41.8309C56.976 41.7102 53.2664 41.6679 50.072 42.2886ZM19.2102 55.1796C21.676 53.0241 21.3664 46.9688 19.1337 44.5769C18.3917 43.7812 17.0911 43.1466 15.8575 42.6701C12.0436 41.1966 6.77319 42.3738 5.3414 46.3312C4.10437 50.7719 4.98523 56.087 7.77937 58.4596C9.28955 59.7407 11.8396 60.4204 13.7238 59.6034C14.1729 59.4093 14.4411 58.8778 15.0192 58.7651C15.5161 59.3006 15.6726 60.4411 16.3908 60.5191C16.847 60.5682 17.5602 59.8593 18.0673 59.5272C18.6892 59.1204 19.3127 58.7624 19.5911 58.383C19.155 57.4972 18.6497 56.6818 17.9908 56.0185C18.3655 55.4444 18.8309 55.5108 19.2102 55.1796ZM35.746 41.9836C35.2306 42.4846 34.9142 43.1852 34.3741 43.6614C34.6192 44.8661 35.1158 45.8176 35.1365 47.2466C35.9939 47.0846 37.0541 47.2731 37.6513 47.2466C38.1284 49.5596 38.775 53.0349 39.2513 55.5611C39.7988 55.6722 40.1142 55.6809 40.6232 55.7133C40.3528 51.5975 40.2053 48.017 39.7846 44.3475C38.4463 44.0108 37.1368 44.8302 35.9744 44.6531C35.7754 43.8858 36.1195 42.742 35.746 41.9836ZM49.3865 42.6701C48.6806 42.9846 47.8306 43.4907 47.3287 44.0429C46.5818 44.8648 46.9488 45.658 47.2525 46.8651C47.4173 47.5191 47.601 48.1562 47.7858 48.7719C48.3204 48.7515 48.9099 48.6281 49.5386 48.5435C50.0645 48.4722 50.9266 48.162 50.9865 49.0012C50.4763 49.35 50.3099 49.9543 49.7676 50.3741C48.6537 51.2355 47.9081 51.4722 48.167 53.425C48.3744 54.9901 48.959 56.812 48.6244 58.5358C51.5991 58.4383 54.5602 58.4849 57.5405 58.917C57.7362 59.0512 57.8979 59.2201 58.0735 59.375C58.8309 58.5824 59.6929 57.8938 60.2831 56.9336C56.5701 56.984 54.392 57.4608 51.2155 57.1627C51.2559 55.1623 50.9145 53.3756 50.7581 51.2889C52.6028 49.4494 55.2312 48.3938 56.5491 46.0262C54.4704 46.1287 52.2105 46.2809 50.2247 46.7889C49.7639 45.7154 50.1284 43.5867 49.5386 42.4407C49.5204 42.5503 49.4127 42.5691 49.3865 42.6701ZM24.0874 43.3565C23.8661 43.3148 23.4692 43.7525 23.2494 43.9667C22.7865 45.5503 22.501 47.2895 22.4108 48.9247C22.2939 51.0475 22.4979 53.7071 23.325 55.3321C24.2892 57.2253 26.6096 59.1796 29.3451 58.8407C30.7115 58.6719 32.5716 57.6426 33.4599 56.3997C34.3488 55.1574 34.4899 54.1188 34.7553 52.5858C35.25 49.729 34.8954 46.2972 33.9936 43.6614C32.5911 43.7722 31.3281 43.4799 29.9547 43.7377C29.9976 45.6512 30.5824 48.2176 28.7355 48.3145C26.8173 48.4151 26.5997 45.5191 26.8303 43.5093C26.0627 43.3565 24.847 43.2645 24.0874 43.3565ZM20.3531 45.95C21.5179 48.3395 21.8118 52.2272 20.2772 54.4164C20.6232 54.8534 20.3247 55.2688 20.4291 55.7133C20.5198 56.0951 21.0578 56.9599 21.4966 57.5438C22.6716 59.1108 24.6473 60.8546 26.9831 60.9769C29.8445 61.1262 32.1837 60.0574 33.0031 57.4682C31.6578 58.5639 29.7911 59.4454 27.821 59.146C21.1081 58.1256 21.5176 49.1198 22.8683 43.7377C22.0442 44.4895 20.9812 45.0022 20.3531 45.95ZM43.4426 44.1951C43.5395 45.0796 43.4973 45.634 43.6713 46.4074C44.2729 46.5006 44.4957 46.2164 45.0426 46.2549C45.2488 45.3895 46.171 44.4404 46.0337 43.7377C45.1275 43.8481 44.0994 43.8358 43.4426 44.1951ZM27.1352 45.721C27.2645 46.8358 27.7395 48.0188 28.7355 47.9333C30.2476 47.8022 29.625 45.0728 29.4216 43.8139C28.4504 44.2404 27.8065 44.9944 27.1352 45.721ZM3.13122 48.3907C2.33801 51.8377 2.59233 56.1951 4.42721 59.2225C5.49048 60.9775 6.52258 62.746 8.84665 62.35C10.2044 62.1185 11.7139 61.5701 13.3426 61.2824C13.9152 61.7516 14.2263 62.4821 14.7905 62.9602C15.5053 62.9309 15.9084 62.7309 16.8482 62.1972C18.0868 61.4938 19.4028 60.984 19.2865 59.2225C18.1683 59.7303 17.5769 60.7657 16.1624 60.9769C15.5772 60.596 15.28 59.9269 14.8667 59.375C14.2707 59.575 14.0791 59.8926 13.5713 60.0611C8.86825 61.625 5.2769 57.1833 4.6556 53.5015C4.14572 50.4802 4.55961 46.6003 5.79819 44.7296C4.58893 45.3682 3.47813 46.8843 3.13122 48.3907ZM44.3568 47.0941C44.455 49.4034 44.6247 52.3673 44.9664 54.7219C45.7497 54.7201 46.5241 54.463 47.4047 54.6454C47.5294 53.838 47.3433 53.2596 47.3287 52.6623C47.2849 50.8318 48.9244 50.3562 49.7676 49.0775C48.8556 49.1642 48.1167 49.3309 47.1766 49.5349C46.6754 48.429 46.6834 46.6892 46.1099 45.8738C45.8127 46.7793 45.5328 47.0682 44.3568 47.0941ZM35.5173 54.1117C35.2562 54.6901 34.8263 55.504 34.7553 56.0185C35.9855 55.6161 36.9392 54.0707 38.3368 54.8747C38.1056 52.5272 37.1331 50.2395 36.7368 48.0855C36.4828 48.0602 36.3988 47.8645 36.051 47.9333C36.4448 50.0948 35.7192 51.9161 35.5173 54.1117ZM36.051 55.9426C33.9778 56.7432 32.7957 59.387 33.2312 61.9679C35.0488 61.8713 36.7207 61.5975 38.3368 61.587C40.3821 61.5741 42.9874 61.0333 45.4997 61.4343C45.9494 60.7148 46.7266 60.3238 47.1003 59.5272C46.0358 59.704 45.0584 59.6068 43.976 59.5272C43.1479 59.467 42.3899 59.7432 41.5374 59.7562C40.6365 59.7698 39.7642 59.4849 38.8701 59.6034C37.6895 59.7608 36.6297 60.1346 35.5173 59.9093C35.5541 58.4142 36.0118 57.2639 36.051 55.9426Z" fill="#342F90"/>
<path fill-rule="evenodd" clip-rule="evenodd" d="M45.4997 40.763C46.004 41.4025 46.4932 42.0568 46.5669 43.1278C45.6725 43.6389 43.8537 43.3238 42.9092 43.9667C43.3589 47.2864 43.9389 52.0645 44.0521 55.5611C44.9756 55.5158 46.1549 55.1753 47.329 55.4083C47.596 56.3404 47.7404 57.8016 47.7861 58.9935C43.7487 59.4914 40.3521 59.0821 35.9744 59.5272C35.9386 58.7488 36.1287 58.1065 36.2793 57.3158C36.4003 56.679 36.3589 55.6519 36.8889 55.4083C37.5543 55.1031 38.6099 55.8046 39.4796 56.0185C40.0281 56.1537 40.5083 56.0648 40.9281 56.3235C40.9484 52.0012 40.4472 47.9762 40.1657 43.8904C39.0537 43.6809 37.3151 44.2907 36.3552 44.1951C36.3154 42.7525 35.8466 41.4025 36.9654 40.9154C37.7685 40.5657 39.7074 40.7046 40.8515 40.6867C42.5509 40.6599 44.2599 40.7034 45.4997 40.763ZM41.9185 57.392C42.296 57.4534 42.4741 57.48 42.4518 57.0099C42.204 56.8182 41.8197 56.9988 41.9185 57.392ZM43.1376 57.6966C43.517 57.6593 43.7722 57.1229 43.2898 57.0099C43.2194 57.2136 42.9154 57.4361 43.1376 57.6966Z" fill="#57DDF3"/>
<path fill-rule="evenodd" clip-rule="evenodd" d="M60.4358 41.8309C60.5716 43.2679 61.026 44.8056 61.2741 46.1784C59.9365 47.9164 58.4448 49.5003 56.7019 50.8318C56.8439 51.4065 56.3954 51.3889 56.4732 51.8994C56.6099 52.3593 57.1019 52.1469 57.5405 52.1284C58.751 52.0756 60.2565 52.1074 61.1979 51.8994C61.2519 53.1874 60.9522 55.142 60.5121 56.5525C57.6417 56.6124 54.1954 57.0599 51.596 56.7818C51.8855 55.1025 50.8936 53.1105 51.2155 51.671C51.2979 51.3003 51.8862 50.6932 52.2059 50.4503C53.9423 49.1315 56.2926 47.8235 57.1587 45.7972C56.8652 45.558 56.2738 45.5321 55.8636 45.5682C53.9565 45.7361 52.1019 46.0941 50.5294 46.1784C50.2204 45.0787 50.2513 43.6759 50.0723 42.2886C53.2667 41.6676 56.9763 41.7102 60.4358 41.8309ZM55.2541 43.4327C55.0895 43.3691 54.9939 43.2349 54.7204 43.2802C54.4161 43.7574 55.2738 44.0241 55.2541 43.4327ZM56.0161 44.4241C56.3176 44.3448 56.3127 43.9586 56.321 43.5849C55.8525 43.4753 55.875 44.1679 56.0161 44.4241Z" fill="#57DDF3"/>
<path fill-rule="evenodd" clip-rule="evenodd" d="M17.9907 56.0185C18.6493 56.6818 19.1549 57.4972 19.591 58.383C19.3123 58.7623 18.6891 59.1204 18.0672 59.5272C17.5601 59.8593 16.8469 60.5682 16.3907 60.5191C15.6725 60.441 15.516 59.3006 15.0188 58.7651C14.4413 58.8778 14.1728 59.4093 13.7237 59.6034C11.8394 60.4204 9.28945 59.7407 7.77926 58.4596C4.98513 56.087 4.10426 50.7719 5.3413 46.3312C6.77309 42.3741 12.0435 41.1966 15.8574 42.6701C17.091 43.1469 18.3913 43.7809 19.1336 44.5769C21.3663 46.9688 21.6759 53.0241 19.2101 55.1796C18.8308 55.5108 18.3651 55.4444 17.9907 56.0185ZM14.6376 46.1784C15.0311 46.1392 15.1388 45.8154 15.1712 45.416C14.7715 45.4198 14.4422 45.8241 14.6376 46.1784ZM16.3907 46.7889C16.6916 46.7849 16.8438 46.6327 16.8481 46.3312C16.5222 46.0735 16.1827 46.4914 16.3907 46.7889ZM15.9333 48.0855C14.8398 47.1512 12.6802 46.3614 11.2086 47.1704C10.9777 47.2972 10.5462 47.7589 10.1422 48.0089L9.98945 48.162C8.61507 49.7787 9.39562 53.2154 10.2944 54.8747C11.124 55.3707 12.4444 56.0889 13.6475 55.7133C13.5654 55.0268 12.7262 54.5907 12.5043 53.8062C13.2228 53.4324 13.8595 52.9762 14.6376 52.6623C15.1033 52.908 15.2061 53.5176 15.7049 53.7299C18.2046 53.1589 17.4336 49.3673 15.9333 48.0855Z" fill="#57DDF3"/>
<path fill-rule="evenodd" clip-rule="evenodd" d="M35.9743 44.6531C37.1367 44.8302 38.4459 44.0108 39.7845 44.3478C40.2052 48.017 40.3524 51.5978 40.6228 55.7133C40.1141 55.6812 39.7984 55.6722 39.2512 55.5611C38.7749 53.0349 38.1283 49.5599 37.6509 47.2469C37.054 47.2734 35.9935 47.0849 35.1364 47.2469C35.1154 45.8179 34.6191 44.8663 34.374 43.6614C34.9141 43.1852 35.2305 42.4845 35.7456 41.9836C36.1191 42.7419 35.7753 43.8858 35.9743 44.6531Z" fill="#91CB91"/>
<path fill-rule="evenodd" clip-rule="evenodd" d="M49.5385 42.4407C50.1286 43.5867 49.7641 45.7154 50.2243 46.7889C52.2111 46.2809 54.4703 46.1287 56.549 46.0262C55.2314 48.3938 52.603 49.4494 50.758 51.2889C50.9151 53.3756 51.2558 55.1623 51.2154 57.1627C54.3916 57.4608 56.5703 56.984 60.2833 56.9336C59.6931 57.8938 58.8308 58.5824 58.0734 59.375C57.8978 59.2201 57.736 59.0512 57.5401 58.917C54.5601 58.4849 51.5993 58.4383 48.6243 58.5358C48.9586 56.812 48.3743 54.9901 48.1669 53.425C47.9083 51.4722 48.6536 51.2355 49.7672 50.3741C50.3098 49.9543 50.4762 49.35 50.9864 49.0012C50.9268 48.162 50.0641 48.4722 49.5385 48.5435C48.9101 48.6281 48.3206 48.7515 47.7861 48.7719C47.6012 48.1562 47.4172 47.5191 47.2524 46.8651C46.9487 45.658 46.5814 44.8648 47.329 44.0429C47.8308 43.4907 48.6802 42.9846 49.3864 42.6701C49.4126 42.5691 49.5206 42.5503 49.5385 42.4407Z" fill="#91CB91"/>
<path fill-rule="evenodd" clip-rule="evenodd" d="M26.8303 43.5093C26.5997 45.5191 26.8173 48.4151 28.7355 48.3145C30.5824 48.2176 29.9976 45.6512 29.9547 43.7377C31.3281 43.4799 32.5911 43.7722 33.9936 43.6614C34.8957 46.2972 35.25 49.729 34.7556 52.5858C34.4899 54.1188 34.3491 55.1574 33.4599 56.3997C32.5719 57.6426 30.7115 58.6719 29.3451 58.8407C26.6099 59.1796 24.2892 57.2253 23.325 55.3321C22.4979 53.7071 22.2939 51.0475 22.4108 48.9247C22.501 47.2895 22.7865 45.5503 23.2491 43.9667C23.4692 43.7525 23.8661 43.3148 24.0874 43.3565C24.8469 43.2645 26.0627 43.3565 26.8303 43.5093ZM26.5257 52.7386C26.7602 52.792 26.6723 52.792 26.9068 52.7386C26.9099 52.5065 26.9507 52.2364 26.6781 52.2809C26.6102 52.4164 26.4655 52.4747 26.5257 52.7386ZM27.4402 53.7299C27.8707 53.7305 27.9164 52.9901 27.5164 52.8913C27.4414 53.1105 27.263 53.4969 27.4402 53.7299Z" fill="#57DDF3"/>
<path fill-rule="evenodd" clip-rule="evenodd" d="M54.7206 43.2802C54.9941 43.2349 55.0895 43.3691 55.2537 43.4327C55.2737 44.0244 54.4157 43.7574 54.7206 43.2802Z" fill="#342F90"/>
<path fill-rule="evenodd" clip-rule="evenodd" d="M56.321 43.5849C56.3127 43.9586 56.3179 44.3447 56.0161 44.4241C55.8753 44.1676 55.8528 43.4753 56.321 43.5849Z" fill="#342F90"/>
<path fill-rule="evenodd" clip-rule="evenodd" d="M22.8679 43.738C21.5176 49.1197 21.108 58.1256 27.821 59.1463C29.7911 59.4454 31.6574 58.5639 33.0031 57.4682C32.1837 60.0574 29.8445 61.1262 26.983 60.9768C24.6469 60.8546 22.6716 59.1108 21.4963 57.5438C21.0577 56.9599 20.5198 56.0951 20.429 55.7133C20.3244 55.2688 20.6232 54.8534 20.2769 54.4167C21.8114 52.2272 21.5179 48.3395 20.3531 45.9503C20.9812 45.0022 22.0441 44.4898 22.8679 43.738Z" fill="#91CB91"/>
<path fill-rule="evenodd" clip-rule="evenodd" d="M46.0333 43.7377C46.1707 44.4404 45.2487 45.3895 45.0426 46.2553C44.4957 46.2164 44.2725 46.5006 43.671 46.4077C43.4972 45.634 43.5395 45.0796 43.4423 44.1951C44.0994 43.8358 45.1274 43.8481 46.0333 43.7377Z" fill="#91CB91"/>
<path fill-rule="evenodd" clip-rule="evenodd" d="M29.4212 43.8139C29.6249 45.0728 30.2475 47.8022 28.7354 47.9333C27.7395 48.0188 27.2648 46.8358 27.1351 45.721C27.8064 44.9944 28.4503 44.2404 29.4212 43.8139Z" fill="#91CB91"/>
<path fill-rule="evenodd" clip-rule="evenodd" d="M5.79841 44.7296C4.55952 46.6003 4.14563 50.4802 4.6555 53.5015C5.2768 57.1833 8.86816 61.625 13.5709 60.0611C14.079 59.8926 14.2706 59.575 14.8666 59.375C15.2799 59.9268 15.5771 60.596 16.1623 60.9768C17.5768 60.7657 18.1682 59.7302 19.2864 59.2225C19.4027 60.9839 18.0867 61.4938 16.8481 62.1972C15.908 62.7309 15.5052 62.9309 14.7904 62.9602C14.2262 62.4821 13.9151 61.7515 13.3425 61.2824C11.7138 61.5701 10.2043 62.1185 8.84655 62.35C6.52217 62.746 5.49069 60.9775 4.42711 59.2225C2.59223 56.1951 2.33791 51.8377 3.13112 48.3907C3.47804 46.8843 4.58884 45.3682 5.79841 44.7296Z" fill="#91CB91"/>
<path fill-rule="evenodd" clip-rule="evenodd" d="M15.1713 45.4161C15.1389 45.8154 15.0312 46.1392 14.6376 46.1784C14.4423 45.8241 14.7716 45.4198 15.1713 45.4161Z" fill="#342F90"/>
<path fill-rule="evenodd" clip-rule="evenodd" d="M16.8481 46.3312C16.8441 46.6327 16.6917 46.7849 16.3907 46.7889C16.183 46.4914 16.5222 46.0735 16.8481 46.3312Z" fill="#342F90"/>
<path fill-rule="evenodd" clip-rule="evenodd" d="M15.7049 53.7299C15.2061 53.5176 15.1033 52.908 14.6376 52.6623C13.8598 52.9762 13.2228 53.4324 12.5043 53.8062C12.7262 54.5907 13.5654 55.0268 13.6475 55.7133C12.4444 56.0889 11.124 55.3707 10.2944 54.8747C9.39562 53.2154 8.61507 49.7787 9.98945 48.162L10.1422 48.0089C10.5462 47.7589 10.9777 47.2972 11.2086 47.1704C12.6802 46.3614 14.8398 47.1512 15.9333 48.0855C17.4336 49.3673 18.2046 53.1589 15.7049 53.7299ZM16.924 51.8231C17.2395 49.5679 15.5524 47.9991 14.0283 47.3988C12.5543 46.8191 11.0888 47.4994 10.5993 48.467C13.0083 48.4741 14.7703 49.9775 14.8666 52.2809C15.1941 52.5636 15.3867 52.9805 15.7811 53.1963C16.5169 53.0719 16.8503 52.3512 16.924 51.8231ZM10.5993 49.1537C10.0898 50.7 10.0969 53.0484 11.0564 54.2645C11.6419 53.1213 13.0151 52.7673 14.0283 52.0522C13.816 50.1543 12.5373 49.3238 10.5993 49.1537ZM11.5135 55.0268C11.8465 55.2413 12.4509 55.5441 12.9614 55.3321C12.6962 54.9111 12.5518 54.3694 12.1231 54.1117C11.9447 54.4413 11.758 54.763 11.5135 55.0268Z" fill="#342F90"/>
<path fill-rule="evenodd" clip-rule="evenodd" d="M15.7812 53.1963C15.3867 52.9806 15.1941 52.5636 14.8667 52.2809C14.7704 49.9775 13.0083 48.4741 10.5994 48.467C11.0889 47.4994 12.5543 46.8191 14.0281 47.3988C15.5525 47.9991 17.2395 49.5679 16.9241 51.8231C16.8503 52.3512 16.517 53.0719 15.7812 53.1963Z" fill="#91CB91"/>
<path fill-rule="evenodd" clip-rule="evenodd" d="M26.6781 52.2809C26.9507 52.2364 26.9099 52.5065 26.9068 52.7386C26.6723 52.792 26.7602 52.792 26.5257 52.7386C26.4655 52.4747 26.6102 52.4164 26.6781 52.2809Z" fill="#342F90"/>
<path fill-rule="evenodd" clip-rule="evenodd" d="M27.5163 52.8914C27.9163 52.9902 27.8706 53.7306 27.4401 53.73C27.2629 53.4969 27.4413 53.1105 27.5163 52.8914Z" fill="#342F90"/>
<path fill-rule="evenodd" clip-rule="evenodd" d="M12.1231 54.1117C12.5515 54.3694 12.6963 54.9111 12.9614 55.3321C12.4509 55.5441 11.8466 55.2414 11.5135 55.0268C11.758 54.763 11.9447 54.4414 12.1231 54.1117Z" fill="#91CB91"/>
<path fill-rule="evenodd" clip-rule="evenodd" d="M35.5172 59.9093C36.6293 60.1346 37.6895 59.7608 38.8703 59.6034C39.7642 59.4849 40.6364 59.7697 41.5376 59.7562C42.3901 59.7432 43.1478 59.467 43.9759 59.5272C45.058 59.6068 46.0358 59.704 47.1 59.5272C46.7268 60.3238 45.9493 60.7148 45.4997 61.4343C42.9873 61.0333 40.3821 61.5741 38.337 61.587C36.7206 61.5975 35.0484 61.8713 33.2311 61.9679C32.7953 59.387 33.9777 56.7432 36.0509 55.9426C36.0117 57.2639 35.5537 58.4142 35.5172 59.9093Z" fill="#91CB91"/>
<path fill-rule="evenodd" clip-rule="evenodd" d="M42.4515 57.0099C42.4741 57.4803 42.296 57.4534 41.9185 57.392C41.8197 56.9988 42.2037 56.8182 42.4515 57.0099Z" fill="#342F90"/>
<path fill-rule="evenodd" clip-rule="evenodd" d="M43.2899 57.0099C43.7723 57.1228 43.517 57.6592 43.138 57.6966C42.9155 57.4361 43.2195 57.2136 43.2899 57.0099Z" fill="#342F90"/>
</svg>
